<svg width="74" height="77" viewBox="0 0 74 77" fill="none" xmlns="http://www.w3.org/2000/svg">
<g clip-path="url(#clip0)">
<path d="M66.4757 8.00834C66.2645 7.76688 66.0084 7.57248 65.723 7.43688C65.4375 7.30129 65.1286 7.22732 64.815 7.21945C64.5013 7.21158 64.1893 7.26997 63.8979 7.39108C63.6065 7.5122 63.3418 7.69354 63.1196 7.92413L61.3318 9.77543C61.1151 10.001 60.9934 10.3069 60.9934 10.6259C60.9934 10.9448 61.1151 11.2507 61.3318 11.4764L62.9708 13.1788C63.0782 13.2911 63.2059 13.3802 63.3466 13.441C63.4872 13.5018 63.638 13.5331 63.7903 13.5331C63.9426 13.5331 64.0934 13.5018 64.234 13.441C64.3746 13.3802 64.5023 13.2911 64.6098 13.1788L66.3528 11.3741C67.2345 10.4582 67.3168 8.96633 66.4757 8.00834Z" fill="#003049"/>
<path d="M57.717 13.535L31.6263 40.6354C31.4681 40.7993 31.3531 41.0028 31.2924 41.2264L30.0856 44.9666C30.0566 45.0681 30.0546 45.1758 30.0796 45.2784C30.1047 45.381 30.1558 45.4747 30.2278 45.5495C30.2997 45.6244 30.3897 45.6776 30.4883 45.7037C30.5869 45.7297 30.6904 45.7276 30.788 45.6975L34.3796 44.4418C34.5944 44.3786 34.79 44.259 34.9476 44.0944L60.9921 16.9428C61.2331 16.6894 61.3682 16.3473 61.3682 15.9909C61.3682 15.6344 61.2331 15.2923 60.9921 15.0389L59.554 13.535C59.3102 13.282 58.9799 13.1399 58.6355 13.1399C58.2912 13.1399 57.9609 13.282 57.717 13.535Z" fill="#003049"/>
<path d="M55.8382 29.1246L38.2213 47.4919C37.5404 48.2021 36.7035 48.7291 35.783 49.0273L32.0397 50.3312C31.1513 50.5923 30.2121 50.6021 29.3188 50.3598C28.4255 50.1174 27.6105 49.6315 26.9578 48.9523C26.305 48.2731 25.8381 47.4251 25.6052 46.4956C25.3723 45.5661 25.3817 44.5888 25.6326 43.6644L26.8857 39.7693C27.1715 38.8118 27.677 37.941 28.3585 37.2322L46.0101 18.8981C46.1719 18.7299 46.2821 18.5156 46.3269 18.2822C46.3716 18.0489 46.3488 17.8069 46.2614 17.587C46.174 17.3671 46.0259 17.1791 45.8358 17.0468C45.6457 16.9145 45.4222 16.8439 45.1935 16.8438H15.0312C12.8847 16.8438 10.826 17.7311 9.3081 19.3105C7.79023 20.8899 6.9375 23.032 6.9375 25.2656V61.3594C6.9375 63.593 7.79023 65.7351 9.3081 67.3145C10.826 68.894 12.8847 69.7812 15.0312 69.7812H49.7188C51.8653 69.7812 53.924 68.894 55.4419 67.3145C56.9598 65.7351 57.8125 63.593 57.8125 61.3594V29.9744C57.8124 29.7364 57.7445 29.5038 57.6173 29.306C57.4902 29.1082 57.3095 28.9541 57.0982 28.8631C56.8869 28.7722 56.6543 28.7485 56.4301 28.795C56.2058 28.8416 55.9998 28.9563 55.8382 29.1246Z" fill="#003049"/>
<rect x="70.9796" y="33" width="203.878" height="36.1429" rx="15" fill="#C4C4C4"/>
</g>
<defs>
<clipPath id="clip0">
<rect width="74" height="77" fill="white"/>
</clipPath>
</defs>
</svg>
