<svg width="512" height="512" viewBox="0 0 512 512" fill="none" xmlns="http://www.w3.org/2000/svg">
<g clip-path="url(#clip0)">
<path d="M234.667 320C199.381 320 170.667 291.285 170.667 256C170.667 220.715 199.381 192 234.667 192H341.333V58.6667C341.333 26.304 315.029 0 282.667 0H58.6667C26.304 0 0 26.304 0 58.6667V453.333C0 485.696 26.304 512 58.6667 512H282.667C315.029 512 341.333 485.696 341.333 453.333V320H234.667Z" fill="#D62828"/>
<path d="M397.163 361.045C389.205 357.739 384 349.952 384 341.333V277.333H234.667C222.891 277.333 213.333 267.776 213.333 256C213.333 244.224 222.891 234.667 234.667 234.667H384V170.667C384 162.048 389.205 154.261 397.163 150.955C405.141 147.648 414.315 149.483 420.416 155.584L505.749 240.917C514.091 249.259 514.091 262.741 505.749 271.083L420.416 356.416C414.315 362.517 405.141 364.352 397.163 361.045Z" fill="#D62828"/>
</g>
<defs>
<clipPath id="clip0">
<rect width="512" height="512" fill="white"/>
</clipPath>
</defs>
</svg>
