<svg width="512" height="512" viewBox="0 0 512 512" fill="none" xmlns="http://www.w3.org/2000/svg">
<path d="M123.801 345.492C123.703 345.547 113.82 350.813 102.5 350.813C91.1953 350.813 81.3672 345.586 81.1797 345.484C77.5507 343.5 73.0039 344.824 71.0117 348.445C69.0117 352.074 70.3359 356.637 73.9648 358.637C74.4961 358.93 87.1836 365.817 102.5 365.817C117.816 365.817 130.504 358.93 131.035 358.637C134.664 356.637 135.988 352.074 133.992 348.445C131.992 344.82 127.434 343.496 123.801 345.492Z" fill="white"/>
<path d="M95.6836 320.473C95.6836 324.613 92.3242 327.973 88.1836 327.973C84.0391 327.973 80.6836 324.613 80.6836 320.473C80.6836 316.328 84.0391 312.973 88.1836 312.973C92.3242 312.973 95.6836 316.328 95.6836 320.473Z" fill="white"/>
<path d="M124.316 320.473C124.316 324.613 120.961 327.973 116.816 327.973C112.676 327.973 109.316 324.613 109.316 320.473C109.316 316.328 112.676 312.973 116.816 312.973C120.961 312.973 124.316 316.328 124.316 320.473Z" fill="white"/>
<path d="M489.672 432.23C487.758 428.559 483.23 427.133 479.555 429.047C475.883 430.965 474.457 435.492 476.371 439.164C482.098 450.141 485 462.027 485 474.5V474.621C485 486.961 474.961 497 462.617 497H354.379C349.938 497 345.637 495.672 342.004 493.258C345.176 487.77 347 481.406 347 474.621V474.5C347 462.285 344.59 450.629 340.227 439.965C353.191 414.371 379.641 398 408.5 398C426.824 398 444.547 404.574 458.402 416.512C461.543 419.215 466.277 418.863 468.98 415.723C471.684 412.586 471.332 407.852 468.195 405.148C460.055 398.137 450.797 392.68 440.891 388.934C458.93 377.961 471 358.113 471 335.5C471 301.035 442.961 273 408.5 273C374.039 273 346 301.035 346 335.5C346 358.121 358.078 377.973 376.129 388.945C358.203 395.746 342.66 408.082 331.98 424.332C321.453 408.336 306.051 395.824 287.898 388.93C305.934 377.953 318 358.109 318 335.5C318 301.035 289.965 273 255.5 273C221.039 273 193 301.035 193 335.5C193 358.109 205.07 377.953 223.105 388.93C204.949 395.824 189.547 408.34 179.016 424.336C175.598 419.121 171.66 414.254 167.203 409.797C157.883 400.477 146.898 393.438 134.93 388.91C152.945 377.934 165 358.098 165 335.5C165 301.035 136.965 273 102.5 273C68.0391 273 40 301.035 40 335.5C40 358.102 52.0625 377.941 70.0859 388.918C58.4492 393.32 47.7344 400.094 38.5898 409.02C35.625 411.914 35.5664 416.664 38.4609 419.629C41.3555 422.59 46.1055 422.648 49.0664 419.754C63.4375 405.727 82.4141 398 102.5 398C122.938 398 142.148 405.957 156.598 420.402C162.363 426.168 167.117 432.738 170.773 439.961C166.41 450.625 164 462.285 164 474.5V474.621C164 481.406 165.824 487.77 168.996 493.258C165.363 495.672 161.062 497 156.621 497H48.3789C36.0391 497 26 486.961 26 474.621V474.5C26 463.953 28.1055 453.746 32.2539 444.152C33.8984 440.352 32.1484 435.938 28.3477 434.293C24.543 432.648 20.1328 434.398 18.4883 438.199C13.5195 449.684 11 461.895 11 474.5V474.621C11 495.23 27.7695 512 48.3789 512H156.621C164.754 512 172.594 509.34 179.004 504.543C185.246 509.223 192.992 512 201.379 512H309.621C318.008 512 325.754 509.227 331.996 504.543C338.406 509.34 346.246 512 354.379 512H462.621C483.23 512 500 495.23 500 474.621V474.5C500 459.797 496.43 445.18 489.672 432.23ZM361 335.5C361 309.309 382.309 288 408.5 288C434.691 288 456 309.309 456 335.5C456 361.691 434.691 383 408.5 383C382.309 383 361 361.691 361 335.5ZM55 335.5C55 309.309 76.3086 288 102.5 288C128.691 288 150 309.309 150 335.5C150 361.691 128.691 383 102.5 383C76.3086 383 55 361.691 55 335.5ZM208 335.5C208 309.309 229.309 288 255.5 288C281.691 288 303 309.309 303 335.5C303 361.691 281.691 383 255.5 383C229.309 383 208 361.691 208 335.5ZM201.379 497C189.039 497 179 486.961 179 474.621V474.5C179 432.316 213.316 398 255.5 398C297.684 398 332 432.316 332 474.5V474.621C332 486.961 321.961 497 309.621 497H201.379Z" fill="white"/>
<path d="M429.801 345.492C429.703 345.547 419.821 350.813 408.5 350.813C397.196 350.813 387.367 345.586 387.18 345.484C383.551 343.5 379.004 344.824 377.012 348.445C375.012 352.074 376.336 356.637 379.965 358.637C380.496 358.93 393.184 365.817 408.5 365.817C423.817 365.817 436.504 358.93 437.035 358.637C440.664 356.637 441.988 352.074 439.992 348.445C437.992 344.82 433.43 343.496 429.801 345.492Z" fill="white"/>
<path d="M401.684 320.473C401.684 324.613 398.324 327.973 394.184 327.973C390.039 327.973 386.684 324.613 386.684 320.473C386.684 316.328 390.039 312.973 394.184 312.973C398.324 312.973 401.684 316.328 401.684 320.473Z" fill="white"/>
<path d="M430.316 320.473C430.316 324.613 426.961 327.973 422.816 327.973C418.676 327.973 415.316 324.613 415.316 320.473C415.316 316.328 418.676 312.973 422.816 312.973C426.961 312.973 430.316 316.328 430.316 320.473Z" fill="white"/>
<path d="M276.801 345.492C276.703 345.547 266.821 350.813 255.5 350.813C244.196 350.813 234.367 345.586 234.18 345.484C230.555 343.5 226.004 344.824 224.012 348.445C222.012 352.074 223.336 356.637 226.965 358.637C227.496 358.93 240.184 365.817 255.5 365.817C270.817 365.817 283.504 358.93 284.035 358.637C287.664 356.637 288.988 352.074 286.992 348.445C284.992 344.82 280.434 343.496 276.801 345.492Z" fill="white"/>
<path d="M248.684 320.473C248.684 324.613 245.324 327.973 241.184 327.973C237.039 327.973 233.684 324.613 233.684 320.473C233.684 316.328 237.039 312.973 241.184 312.973C245.324 312.973 248.684 316.328 248.684 320.473Z" fill="white"/>
<path d="M277.316 320.473C277.316 324.613 273.961 327.973 269.816 327.973C265.676 327.973 262.316 324.613 262.316 320.473C262.316 316.328 265.676 312.973 269.816 312.973C273.961 312.973 277.316 316.328 277.316 320.473Z" fill="white"/>
<path d="M305.5 105.258H411.5C415.641 105.258 419 101.898 419 97.7578C419 93.6133 415.641 90.2578 411.5 90.2578H305.5C301.359 90.2578 298 93.6133 298 97.7578C298 101.898 301.359 105.258 305.5 105.258Z" fill="#D62828"/>
<path d="M305.5 135.258H411.5C415.641 135.258 419 131.898 419 127.758C419 123.613 415.641 120.258 411.5 120.258H305.5C301.359 120.258 298 123.613 298 127.758C298 131.898 301.359 135.258 305.5 135.258Z" fill="#D62828"/>
<path d="M305.5 165.258H411.5C415.641 165.258 419 161.898 419 157.758C419 153.613 415.641 150.258 411.5 150.258H305.5C301.359 150.258 298 153.613 298 157.758C298 161.898 301.359 165.258 305.5 165.258Z" fill="#D62828"/>
<path d="M84.875 208.254H120.793C123.113 227.777 130.074 242.055 141.539 250.746C151.039 257.949 161.93 259.992 171.227 259.992C177.012 259.992 182.188 259.199 186.02 258.367C190.039 257.496 192.898 253.887 192.824 249.777C192.754 245.668 189.762 242.156 185.711 241.43C181.148 240.613 178.035 238.645 175.918 235.227C171.449 228.012 172.375 215.992 173.809 208.254H220.121C228.289 208.254 236.012 206.328 242.871 202.93C250.344 222.371 269.371 236.008 290.879 236.008H337.188C338.625 243.754 339.551 255.773 335.078 262.984C332.965 266.398 329.852 268.371 325.281 269.188C321.242 269.914 318.258 273.418 318.176 277.52C318.094 281.684 320.883 285.223 324.98 286.129C328.812 286.961 333.984 287.754 339.77 287.754C349.07 287.754 359.965 285.707 369.469 278.5C380.93 269.805 387.887 255.531 390.203 236.008H426.121C454.449 236.008 477.5 212.977 477.5 184.668V79.1016C477.5 50.7891 454.449 27.7617 426.121 27.7617H290.879C282.965 27.7617 275.16 29.6133 268.129 33.0742C260.742 13.7617 242.016 0 220.125 0H127.5C123.359 0 120 3.35547 120 7.5C120 11.6445 123.359 15 127.5 15H220.125C240.184 15 256.5 31.3008 256.5 51.3398V156.914C256.5 176.953 240.184 193.254 220.125 193.254H167.859C164.535 193.254 161.609 195.441 160.668 198.629C159.84 201.43 152.883 226.473 163.145 243.09C163.422 243.539 163.711 243.98 164.012 244.41C159.41 243.617 154.742 241.93 150.605 238.793C141.449 231.852 136.25 218.902 135.148 200.309C134.91 196.348 131.629 193.254 127.66 193.254H84.875C64.8164 193.254 48.5 176.953 48.5 156.914V51.3398C48.5 31.3008 64.8164 15 84.875 15H95.5C99.6406 15 103 11.6445 103 7.5C103 3.35547 99.6406 0 95.5 0H84.875C56.5469 0 33.5 23.0312 33.5 51.3398V156.914C33.5 185.223 56.5469 208.254 84.875 208.254ZM271.5 156.914V51.3398C271.5 50.3516 271.465 49.3711 271.41 48.3984C277.211 44.7031 283.867 42.7617 290.879 42.7617H426.121C446.18 42.7617 462.5 59.0625 462.5 79.1016V184.672C462.5 204.707 446.18 221.012 426.121 221.012H383.34C379.371 221.012 376.09 224.105 375.852 228.066C374.75 246.66 369.555 259.609 360.402 266.551C356.262 269.691 351.59 271.379 346.984 272.172C347.285 271.738 347.574 271.301 347.852 270.848C358.117 254.23 351.16 229.188 350.332 226.387C349.391 223.199 346.465 221.012 343.141 221.012H290.879C274.316 221.012 259.836 209.602 255.695 193.906C265.426 184.559 271.5 171.438 271.5 156.914Z" fill="#D62828"/>
<path d="M83 89.3984C83 105.148 91.1836 135.898 145.984 164.887C148.023 165.965 150.262 166.504 152.5 166.504C154.738 166.504 156.977 165.965 159.016 164.887C213.816 135.898 222 105.148 222 89.3984C222 65.3438 205.09 46.5 183.5 46.5C168.637 46.5 158.203 53.5078 152.5 58.7227C146.801 53.5117 136.367 46.5 121.5 46.5C99.9102 46.5 83 65.3438 83 89.3984ZM121.5 61.5C132.078 61.5 139.363 66.6562 143.609 70.9766C145.926 73.3398 149.168 74.6914 152.5 74.6914C155.832 74.6914 159.074 73.3398 161.391 70.9805C165.637 66.6562 172.922 61.5 183.5 61.5C198.766 61.5 207 75.875 207 89.3984C207 110.359 187.145 132.926 152.5 151.363C117.855 132.926 98 110.359 98 89.3984C98 75.875 106.234 61.5 121.5 61.5Z" fill="#D62828"/>
</svg>
