<svg width="426" height="334" viewBox="0 0 426 334" fill="none" xmlns="http://www.w3.org/2000/svg">
<rect width="426" height="334" fill="#FCBF49"/>
<g clip-path="url(#clip0)">
<path d="M213 284C287.558 284 348 279.888 348 274.815C348 269.742 287.558 265.63 213 265.63C138.442 265.63 78 269.742 78 274.815C78 279.888 138.442 284 213 284Z" fill="#F77F00"/>
<path d="M284.335 92C284.08 92.0003 283.836 92.11 283.656 92.3051C283.476 92.5001 283.375 92.7646 283.375 93.0405V133.826C283.375 134.102 283.476 134.367 283.656 134.562C283.836 134.757 284.08 134.866 284.335 134.867H328.283C328.538 134.866 328.782 134.757 328.962 134.562C329.142 134.366 329.243 134.102 329.243 133.826V93.0405C329.243 92.7646 329.142 92.5002 328.962 92.3051C328.782 92.11 328.538 92.0003 328.283 92L284.335 92Z" fill="#003049"/>
<path d="M290.43 116.549C290.334 116.57 290.249 116.626 290.187 116.708C290.126 116.79 290.092 116.892 290.092 116.997C290.092 117.103 290.126 117.205 290.187 117.287C290.249 117.368 290.334 117.425 290.43 117.446H322.583C322.679 117.425 322.764 117.368 322.826 117.287C322.888 117.205 322.921 117.103 322.921 116.997C322.921 116.892 322.888 116.79 322.826 116.708C322.764 116.626 322.679 116.57 322.583 116.549H290.43Z" fill="white"/>
<path d="M290.035 121.876C289.939 121.897 289.853 121.953 289.792 122.035C289.73 122.116 289.697 122.219 289.697 122.324C289.697 122.429 289.73 122.532 289.792 122.613C289.853 122.695 289.939 122.751 290.035 122.772H322.188C322.284 122.751 322.369 122.695 322.431 122.613C322.492 122.532 322.526 122.429 322.526 122.324C322.526 122.219 322.492 122.116 322.431 122.035C322.369 121.953 322.284 121.897 322.188 121.876H290.035Z" fill="white"/>
<path d="M290.43 127.202C290.334 127.223 290.249 127.28 290.187 127.361C290.126 127.443 290.092 127.545 290.092 127.651C290.092 127.756 290.126 127.858 290.187 127.94C290.249 128.022 290.334 128.078 290.43 128.099H322.583C322.679 128.078 322.764 128.022 322.826 127.94C322.888 127.858 322.921 127.756 322.921 127.651C322.921 127.545 322.888 127.443 322.826 127.361C322.764 127.28 322.679 127.223 322.583 127.202H290.43Z" fill="white"/>
<path d="M290.43 98.7678C290.334 98.7889 290.249 98.845 290.187 98.9268C290.126 99.0085 290.092 99.1107 290.092 99.2162C290.092 99.3217 290.126 99.424 290.187 99.5057C290.249 99.5874 290.334 99.6435 290.43 99.6646H322.583C322.679 99.6435 322.765 99.5874 322.826 99.5057C322.888 99.424 322.921 99.3217 322.921 99.2162C322.921 99.1107 322.888 99.0085 322.826 98.9268C322.765 98.845 322.679 98.7889 322.583 98.7678H290.43Z" fill="white"/>
<path d="M290.035 104.094C289.939 104.116 289.853 104.172 289.792 104.253C289.73 104.335 289.697 104.437 289.697 104.543C289.697 104.648 289.73 104.751 289.792 104.832C289.853 104.914 289.939 104.97 290.035 104.991H322.188C322.284 104.97 322.369 104.914 322.431 104.832C322.492 104.751 322.526 104.648 322.526 104.543C322.526 104.437 322.492 104.335 322.431 104.253C322.369 104.172 322.284 104.116 322.188 104.094H290.035Z" fill="white"/>
<path d="M290.43 109.421C290.334 109.442 290.249 109.498 290.187 109.58C290.126 109.662 290.092 109.764 290.092 109.869C290.092 109.975 290.126 110.077 290.187 110.159C290.249 110.24 290.334 110.297 290.43 110.318H322.583C322.679 110.297 322.765 110.24 322.826 110.159C322.888 110.077 322.921 109.975 322.921 109.869C322.921 109.764 322.888 109.662 322.826 109.58C322.765 109.498 322.679 109.442 322.583 109.421H290.43Z" fill="white"/>
<path d="M264.691 108.678C264.436 108.679 264.192 108.788 264.012 108.983C263.832 109.178 263.731 109.443 263.731 109.719V150.504C263.731 150.78 263.832 151.045 264.012 151.24C264.192 151.435 264.436 151.545 264.691 151.545H308.639C308.894 151.545 309.138 151.435 309.318 151.24C309.498 151.045 309.599 150.78 309.599 150.504V109.719C309.599 109.443 309.498 109.178 309.318 108.983C309.138 108.788 308.894 108.679 308.639 108.678H264.691Z" fill="#D62828"/>
<path d="M270.786 133.227C270.69 133.248 270.605 133.304 270.543 133.386C270.482 133.468 270.448 133.57 270.448 133.676C270.448 133.781 270.482 133.883 270.543 133.965C270.605 134.047 270.69 134.103 270.786 134.124H302.939C303.035 134.103 303.121 134.047 303.182 133.965C303.244 133.883 303.277 133.781 303.277 133.676C303.277 133.57 303.244 133.468 303.182 133.386C303.121 133.304 303.035 133.248 302.939 133.227H270.786Z" fill="white"/>
<path d="M270.391 138.554C270.295 138.575 270.209 138.631 270.148 138.713C270.086 138.794 270.053 138.897 270.053 139.002C270.053 139.108 270.086 139.21 270.148 139.292C270.209 139.373 270.295 139.429 270.391 139.45H302.544C302.64 139.429 302.725 139.373 302.787 139.292C302.848 139.21 302.882 139.108 302.882 139.002C302.882 138.897 302.848 138.794 302.787 138.713C302.725 138.631 302.64 138.575 302.544 138.554H270.391Z" fill="white"/>
<path d="M270.786 143.881C270.69 143.902 270.605 143.958 270.543 144.039C270.482 144.121 270.448 144.223 270.448 144.329C270.448 144.434 270.482 144.537 270.543 144.618C270.605 144.7 270.69 144.756 270.786 144.777H302.939C303.035 144.756 303.121 144.7 303.182 144.618C303.244 144.537 303.277 144.434 303.277 144.329C303.277 144.223 303.244 144.121 303.182 144.039C303.121 143.958 303.035 143.902 302.939 143.881H270.786Z" fill="white"/>
<path d="M270.786 115.446C270.69 115.467 270.605 115.523 270.543 115.605C270.482 115.687 270.448 115.789 270.448 115.894C270.448 116 270.482 116.102 270.543 116.184C270.605 116.266 270.69 116.322 270.786 116.343H302.939C303.035 116.322 303.121 116.266 303.182 116.184C303.244 116.102 303.277 116 303.277 115.894C303.277 115.789 303.244 115.687 303.182 115.605C303.121 115.523 303.035 115.467 302.939 115.446H270.786Z" fill="white"/>
<path d="M270.391 120.773C270.295 120.794 270.209 120.85 270.148 120.932C270.086 121.013 270.053 121.116 270.053 121.221C270.053 121.327 270.086 121.429 270.148 121.511C270.209 121.592 270.295 121.648 270.391 121.669H302.544C302.64 121.648 302.725 121.592 302.787 121.511C302.848 121.429 302.882 121.327 302.882 121.221C302.882 121.116 302.848 121.013 302.787 120.932C302.725 120.85 302.64 120.794 302.544 120.773H270.391Z" fill="white"/>
<path d="M270.786 126.099C270.69 126.12 270.605 126.177 270.543 126.258C270.482 126.34 270.448 126.442 270.448 126.548C270.448 126.653 270.482 126.756 270.543 126.837C270.605 126.919 270.69 126.975 270.786 126.996H302.939C303.035 126.975 303.121 126.919 303.182 126.837C303.244 126.756 303.277 126.653 303.277 126.548C303.277 126.442 303.244 126.34 303.182 126.258C303.121 126.177 303.035 126.12 302.939 126.099H270.786Z" fill="white"/>
<path d="M326.776 260.826L327.006 265.57L331.844 265.071L331.383 260.327L326.776 260.826Z" fill="#FBBEBE"/>
<path d="M308.117 255.333L308.348 260.077L313.185 259.577L312.724 254.833L308.117 255.333Z" fill="#FBBEBE"/>
<path d="M330.116 196.281L312.609 199.527L311.458 233.984L306.85 255.957L314.222 259.453L321.363 237.73L323.897 218.503L325.739 237.73L325.97 261.95L337.257 261.201L334.558 213.772C334.211 207.671 332.698 201.715 330.116 196.281V196.281Z" fill="#2F2E41"/>
<path d="M327.467 263.822C327.467 263.822 325.855 261.825 325.855 262.574C325.855 263.323 324.933 270.564 324.933 270.564C324.933 270.564 331.153 272.561 331.153 273.81C331.153 275.058 340.136 277.056 339.906 274.559C339.676 272.062 331.844 262.574 331.844 262.574C331.844 262.574 328.619 262.074 327.467 263.822Z" fill="#2F2E41"/>
<path d="M309.089 258.359C309.089 258.359 308.598 255.759 308.256 256.41C307.915 257.061 303.812 262.863 303.812 262.863C303.812 262.863 308.308 267.931 307.739 269.016C307.17 270.102 314.069 276.651 315.007 274.357C315.945 272.063 313.463 259.619 313.463 259.619C313.463 259.619 310.887 257.457 309.089 258.359Z" fill="#2F2E41"/>
<path d="M308.736 168.756L321.488 170.078L325.739 157.521L313.531 154.333L308.736 168.756Z" fill="#2F2E41"/>
<path d="M319.174 166.193C322.736 166.193 325.624 163.063 325.624 159.202C325.624 155.341 322.736 152.211 319.174 152.211C315.612 152.211 312.724 155.341 312.724 159.202C312.724 163.063 315.612 166.193 319.174 166.193Z" fill="#FBBEBE"/>
<path d="M315.489 163.447C315.489 163.447 315.489 168.191 312.033 170.188C308.578 172.186 320.326 174.433 320.326 174.433L321.478 170.188C321.478 170.188 318.023 168.441 321.017 164.446L315.489 163.447Z" fill="#FBBEBE"/>
<path d="M321.017 168.94C321.017 168.94 316.798 171.773 313.264 169.233L311.803 168.94L307.426 169.939L305.353 178.428L313.185 199.652C313.185 199.652 326.776 202.149 329.54 196.656L327.928 174.184L323.551 168.441L321.017 168.94Z" fill="#575A89"/>
<path d="M323.09 169.19L330.692 157.704L330.001 156.455L320.096 150.962V147.467L335.529 151.961L336.574 153.755L327.467 175.182L323.09 169.19Z" fill="#575A89"/>
<path d="M307.887 170.188L307.426 169.939L295.909 169.439L304.662 161.2L301.898 157.454L288.768 168.191V170.688L307.426 179.177L307.887 170.188Z" fill="#575A89"/>
<path d="M301.783 158.578L303.395 157.579C303.395 157.579 306.85 152.585 308.233 154.583C309.615 156.58 305.008 160.326 305.008 160.326L302.474 161.324L301.783 158.578Z" fill="#FBBEBE"/>
<path d="M320.787 148.216L318.253 146.718C318.253 146.718 310.651 147.467 311.573 149.214C312.494 150.962 317.792 149.464 317.792 149.464L320.787 150.463V148.216Z" fill="#FBBEBE"/>
<path d="M314.223 152.454C314.223 152.454 311.262 153.524 311.112 157.749C311.097 158.424 311.166 159.099 311.317 159.755C311.484 160.521 311.591 162.169 310.299 164.322C309.434 165.744 308.644 167.217 307.932 168.736L307.923 168.756L311.174 169.196L311.866 163.354C312.201 160.521 312.919 157.758 313.997 155.152L314.02 155.098C314.02 155.098 315.442 157.961 318.287 157.961L317.271 156.86C317.271 156.86 321.742 158.843 323.368 158.843C323.368 158.843 324.588 159.724 323.368 161.046C322.149 162.367 319.71 165.451 321.133 167.875C322.555 170.298 321.336 170.959 321.336 170.959L323.571 169.637L324.588 168.976V169.857L329.872 169.196C329.872 169.196 331.294 168.976 328.246 165.231C328.246 165.231 327.441 163.777 327.793 162.523C328.082 161.569 328.158 160.555 328.015 159.564C327.332 155.434 324.652 147.224 314.223 152.454Z" fill="#2F2E41"/>
<path d="M128.839 156.533C128.679 156.533 128.526 156.602 128.414 156.724C128.301 156.846 128.238 157.011 128.238 157.184V206.942C128.238 207.115 128.301 207.28 128.414 207.402C128.526 207.524 128.679 207.593 128.839 207.593H233.625C233.784 207.593 233.937 207.524 234.05 207.402C234.162 207.28 234.226 207.115 234.226 206.942V157.184C234.226 157.011 234.162 156.846 234.05 156.724C233.937 156.602 233.784 156.533 233.625 156.533H128.839Z" fill="#D62828"/>
<path d="M219.445 166.349H143.018C142.924 166.349 142.83 166.329 142.742 166.29C142.654 166.251 142.575 166.193 142.508 166.121C142.44 166.048 142.387 165.962 142.351 165.867C142.315 165.772 142.296 165.67 142.296 165.568C142.296 165.465 142.315 165.363 142.351 165.268C142.387 165.173 142.44 165.087 142.508 165.014C142.575 164.942 142.654 164.884 142.742 164.845C142.83 164.806 142.924 164.786 143.018 164.786H219.445C219.636 164.787 219.819 164.869 219.954 165.016C220.089 165.162 220.165 165.361 220.165 165.568C220.165 165.775 220.089 165.973 219.954 166.12C219.819 166.266 219.636 166.349 219.445 166.349Z" fill="white"/>
<path d="M219.445 172.602H143.018C142.827 172.602 142.644 172.519 142.508 172.373C142.373 172.226 142.297 172.027 142.297 171.82C142.297 171.613 142.373 171.414 142.508 171.267C142.644 171.121 142.827 171.039 143.018 171.039H219.445C219.636 171.039 219.82 171.121 219.955 171.267C220.09 171.414 220.166 171.613 220.166 171.82C220.166 172.027 220.09 172.226 219.955 172.373C219.82 172.519 219.636 172.602 219.445 172.602Z" fill="white"/>
<path d="M219.445 178.854H143.018C142.924 178.854 142.83 178.834 142.742 178.795C142.654 178.756 142.575 178.698 142.508 178.626C142.44 178.553 142.387 178.467 142.351 178.372C142.315 178.277 142.296 178.175 142.296 178.072C142.296 177.97 142.315 177.868 142.351 177.773C142.387 177.678 142.44 177.592 142.508 177.519C142.575 177.447 142.654 177.389 142.742 177.35C142.83 177.311 142.924 177.291 143.018 177.291H219.445C219.636 177.291 219.819 177.374 219.954 177.52C220.089 177.667 220.165 177.865 220.165 178.072C220.165 178.279 220.089 178.478 219.954 178.624C219.819 178.771 219.636 178.853 219.445 178.854Z" fill="white"/>
<path d="M219.445 185.059H143.018C142.827 185.059 142.644 184.977 142.508 184.83C142.373 184.683 142.297 184.485 142.297 184.277C142.297 184.07 142.373 183.871 142.508 183.725C142.644 183.578 142.827 183.496 143.018 183.496H219.445C219.636 183.496 219.82 183.578 219.955 183.725C220.09 183.871 220.166 184.07 220.166 184.277C220.166 184.485 220.09 184.683 219.955 184.83C219.82 184.977 219.636 185.059 219.445 185.059Z" fill="white"/>
<path d="M219.445 191.311H143.018C142.924 191.311 142.83 191.291 142.742 191.252C142.654 191.213 142.575 191.155 142.508 191.083C142.44 191.01 142.387 190.924 142.351 190.829C142.315 190.734 142.296 190.632 142.296 190.53C142.296 190.427 142.315 190.325 142.351 190.23C142.387 190.135 142.44 190.049 142.508 189.976C142.575 189.904 142.654 189.846 142.742 189.807C142.83 189.768 142.924 189.748 143.018 189.748H219.445C219.636 189.748 219.82 189.83 219.955 189.977C220.09 190.124 220.166 190.322 220.166 190.53C220.166 190.737 220.09 190.936 219.955 191.082C219.82 191.229 219.636 191.311 219.445 191.311Z" fill="white"/>
<path d="M200.046 196.514C199.991 196.514 199.939 196.537 199.9 196.579C199.861 196.621 199.84 196.678 199.84 196.737V202.653C199.84 202.712 199.861 202.769 199.9 202.811C199.939 202.852 199.991 202.876 200.046 202.876H219.137C219.192 202.876 219.244 202.852 219.282 202.811C219.321 202.769 219.343 202.712 219.343 202.653V196.737C219.343 196.678 219.321 196.621 219.282 196.579C219.244 196.537 219.192 196.514 219.137 196.514H200.046Z" fill="white"/>
<path d="M95.4671 207.48C95.4671 207.48 93.8908 228.024 93.5524 232.426C93.3203 235.186 92.7513 237.9 91.8602 240.497C91.4552 241.416 91.225 242.414 91.1833 243.432V262.141C91.1833 262.141 89.8296 262.141 90.168 263.608C90.5065 265.076 90.8449 267.644 90.8449 267.644H95.9215C95.9215 267.644 95.583 266.543 96.5984 266.176C97.6137 265.809 96.5984 262.875 96.5984 262.875L102.013 240.864L110.136 222.521C110.136 222.521 114.874 239.029 115.889 240.864C115.889 240.864 119.612 261.407 120.289 263.241C120.966 265.076 121.304 265.076 120.966 265.809C120.627 266.543 120.627 267.277 120.966 267.644C121.304 268.011 127.735 267.644 127.735 267.644L126.043 241.597L122.997 210.415L107.428 205.279L95.4671 207.48Z" fill="#575A89"/>
<path d="M94.5677 264.709C94.5677 264.709 92.8755 258.105 90.168 263.241C87.4605 268.377 87.4605 270.212 87.4605 270.212C87.4605 270.212 83.0608 277.182 89.1527 276.448C95.2446 275.714 93.8908 272.413 93.8908 272.413C93.8908 272.413 96.2599 270.945 96.2599 269.845C96.2599 268.744 94.5677 264.709 94.5677 264.709Z" fill="#2F2E41"/>
<path d="M121.981 263.975C121.981 263.975 123.673 257.372 126.381 262.508C129.088 267.644 129.088 269.478 129.088 269.478C129.088 269.478 133.488 276.448 127.396 275.714C121.304 274.981 122.658 271.679 122.658 271.679C122.658 271.679 120.289 270.212 120.289 269.111C120.289 268.011 121.981 263.975 121.981 263.975Z" fill="#2F2E41"/>
<path d="M106.075 157.955C106.075 157.955 106.751 162.724 104.721 163.825C102.69 164.925 109.121 168.961 110.813 168.961C112.505 168.961 115.551 165.292 115.551 165.292C115.551 165.292 113.859 159.789 114.197 158.689L106.075 157.955Z" fill="#FFB9B9"/>
<path d="M109.797 161.624C113.723 161.624 116.905 158.175 116.905 153.92C116.905 149.665 113.723 146.216 109.797 146.216C105.872 146.216 102.69 149.665 102.69 153.92C102.69 158.175 105.872 161.624 109.797 161.624Z" fill="#FFB9B9"/>
<path d="M123.673 169.694L115.213 164.138C115.213 164.138 110.399 170.061 105.191 163.458L96.2599 166.026L97.6136 190.972C97.6136 190.972 95.583 200.877 96.2599 202.711C96.9368 204.545 94.5677 205.279 95.2446 205.646C95.9214 206.013 95.2446 208.581 95.2446 208.581C95.2446 208.581 108.444 215.918 122.997 210.415L121.643 205.646C121.827 205.022 121.862 204.358 121.743 203.716C121.625 203.075 121.357 202.476 120.966 201.977C120.966 201.977 122.32 199.776 120.627 197.942C120.627 197.942 121.304 194.64 119.612 193.173L119.274 188.037L120.289 185.469L123.673 169.694Z" fill="#CFCCE0"/>
<path d="M106.16 150.343C106.16 150.343 105.313 152.33 108.702 151.535C108.702 151.535 109.973 152.33 109.973 151.138C109.973 151.138 111.668 153.126 112.091 151.933C112.515 150.74 113.362 152.33 113.362 152.33L114.21 150.343L115.057 151.535H118.023C118.023 151.535 118.87 143.585 108.702 144.38C98.5343 145.175 103.536 157.772 103.536 157.772C103.536 157.772 103.618 155.511 104.466 156.703C105.313 157.896 106.16 150.343 106.16 150.343Z" fill="#2F2E41"/>
<path d="M126.719 184.368L127.058 192.072C127.058 192.072 128.412 206.379 125.704 212.616V215.918C125.704 215.918 125.027 224.355 121.643 223.988C118.258 223.621 122.658 211.882 122.658 211.882L121.981 195.741L121.304 186.57L126.719 184.368Z" fill="#FFB9B9"/>
<path d="M119.951 170.061L123.327 169.467C125.759 172 127.415 175.28 128.073 178.866C129.088 184.735 129.427 185.836 129.427 185.836L121.304 188.037L116.905 178.866L119.951 170.061Z" fill="#CFCCE0"/>
<path d="M105.78 172.235C105.62 172.235 105.468 172.303 105.355 172.426C105.242 172.548 105.179 172.713 105.179 172.886V222.644C105.179 222.816 105.242 222.982 105.355 223.104C105.468 223.226 105.62 223.295 105.78 223.295H210.566C210.725 223.295 210.878 223.226 210.991 223.104C211.103 222.982 211.167 222.816 211.167 222.644V172.886C211.167 172.713 211.103 172.548 210.991 172.426C210.878 172.303 210.725 172.235 210.566 172.235H105.78Z" fill="#003049"/>
<path d="M196.386 182.051H119.959C119.768 182.051 119.585 181.968 119.45 181.822C119.316 181.675 119.24 181.477 119.24 181.27C119.24 181.063 119.316 180.864 119.45 180.718C119.585 180.571 119.768 180.488 119.959 180.488H196.386C196.577 180.488 196.761 180.57 196.896 180.717C197.031 180.864 197.107 181.062 197.107 181.27C197.107 181.477 197.031 181.676 196.896 181.822C196.761 181.969 196.577 182.051 196.386 182.051Z" fill="white"/>
<path d="M196.386 188.303H119.959C119.768 188.303 119.585 188.22 119.45 188.074C119.316 187.927 119.24 187.729 119.24 187.522C119.24 187.315 119.316 187.116 119.45 186.97C119.585 186.823 119.768 186.741 119.959 186.74H196.386C196.577 186.74 196.761 186.823 196.896 186.969C197.031 187.116 197.107 187.314 197.107 187.522C197.107 187.729 197.031 187.928 196.896 188.074C196.761 188.221 196.577 188.303 196.386 188.303Z" fill="white"/>
<path d="M196.386 194.556H119.959C119.768 194.555 119.585 194.473 119.45 194.326C119.316 194.18 119.24 193.981 119.24 193.774C119.24 193.567 119.316 193.369 119.45 193.222C119.585 193.076 119.768 192.993 119.959 192.993H196.386C196.481 192.992 196.575 193.013 196.662 193.052C196.75 193.091 196.83 193.148 196.897 193.221C196.964 193.294 197.017 193.38 197.054 193.475C197.09 193.57 197.109 193.671 197.109 193.774C197.109 193.877 197.09 193.979 197.054 194.074C197.017 194.169 196.964 194.255 196.897 194.327C196.83 194.4 196.75 194.458 196.662 194.497C196.575 194.536 196.481 194.556 196.386 194.556Z" fill="white"/>
<path d="M196.386 200.761H119.959C119.768 200.76 119.585 200.678 119.45 200.531C119.316 200.385 119.24 200.186 119.24 199.979C119.24 199.772 119.316 199.574 119.45 199.427C119.585 199.281 119.768 199.198 119.959 199.198H196.386C196.481 199.198 196.575 199.218 196.662 199.257C196.75 199.296 196.83 199.354 196.897 199.426C196.964 199.499 197.017 199.585 197.054 199.68C197.09 199.775 197.109 199.877 197.109 199.979C197.109 200.082 197.09 200.184 197.054 200.279C197.017 200.374 196.964 200.46 196.897 200.532C196.83 200.605 196.75 200.663 196.662 200.702C196.575 200.741 196.481 200.761 196.386 200.761Z" fill="white"/>
<path d="M196.386 207.013H119.959C119.768 207.013 119.585 206.931 119.45 206.784C119.314 206.638 119.238 206.439 119.238 206.231C119.238 206.024 119.314 205.825 119.45 205.679C119.585 205.532 119.768 205.45 119.959 205.45H196.386C196.577 205.45 196.761 205.532 196.896 205.679C197.031 205.825 197.107 206.024 197.107 206.231C197.107 206.439 197.031 206.638 196.896 206.784C196.761 206.931 196.577 207.013 196.386 207.013Z" fill="white"/>
<path d="M176.987 212.216C176.932 212.216 176.88 212.239 176.841 212.281C176.803 212.323 176.781 212.38 176.781 212.439V218.355C176.781 218.414 176.803 218.471 176.841 218.512C176.88 218.554 176.932 218.578 176.987 218.578H196.078C196.133 218.578 196.185 218.554 196.224 218.512C196.262 218.471 196.284 218.414 196.284 218.355V212.439C196.284 212.38 196.262 212.323 196.224 212.281C196.185 212.239 196.133 212.216 196.078 212.216H176.987Z" fill="white"/>
<path d="M91.1834 179.966C91.1834 179.966 88.1374 193.907 91.8602 193.907C95.5831 193.907 104.382 178.132 104.382 178.132C104.382 178.132 113.52 172.996 109.797 171.162C106.075 169.328 101.337 174.097 101.337 174.097L95.8694 182.324L95.5831 178.132L91.1834 179.966Z" fill="#FFB9B9"/>
<path d="M98.2906 168.227L96.2599 166.026C96.2599 166.026 92.1987 168.594 91.8602 171.162C91.5218 173.73 89.8296 181.8 89.8296 181.8L96.0907 182.351L98.1213 179.049L98.2906 168.227Z" fill="#CFCCE0"/>
</g>
<g filter="url(#filter0_d)">
<path d="M97.5562 33.8C99.7882 33.8 101.72 34.172 103.352 34.916C105.008 35.66 106.28 36.716 107.168 38.084C108.056 39.452 108.5 41.072 108.5 42.944C108.5 44.792 108.056 46.412 107.168 47.804C106.28 49.172 105.008 50.228 103.352 50.972C101.72 51.692 99.7882 52.052 97.5562 52.052H92.4802V59H86.6482V33.8H97.5562ZM97.2322 47.3C98.9842 47.3 100.316 46.928 101.228 46.184C102.14 45.416 102.596 44.336 102.596 42.944C102.596 41.528 102.14 40.448 101.228 39.704C100.316 38.936 98.9842 38.552 97.2322 38.552H92.4802V47.3H97.2322ZM132.131 39.632V59H126.803V56.696C126.059 57.536 125.171 58.184 124.139 58.64C123.107 59.072 121.991 59.288 120.791 59.288C118.247 59.288 116.231 58.556 114.743 57.092C113.255 55.628 112.511 53.456 112.511 50.576V39.632H118.127V49.748C118.127 52.868 119.435 54.428 122.051 54.428C123.395 54.428 124.475 53.996 125.291 53.132C126.107 52.244 126.515 50.936 126.515 49.208V39.632H132.131ZM148.782 39.344C150.582 39.344 152.214 39.764 153.678 40.604C155.166 41.42 156.33 42.584 157.17 44.096C158.01 45.584 158.43 47.324 158.43 49.316C158.43 51.308 158.01 53.06 157.17 54.572C156.33 56.06 155.166 57.224 153.678 58.064C152.214 58.88 150.582 59.288 148.782 59.288C146.118 59.288 144.09 58.448 142.698 56.768V59H137.334V32.288H142.95V41.684C144.366 40.124 146.31 39.344 148.782 39.344ZM147.81 54.68C149.25 54.68 150.426 54.2 151.338 53.24C152.274 52.256 152.742 50.948 152.742 49.316C152.742 47.684 152.274 46.388 151.338 45.428C150.426 44.444 149.25 43.952 147.81 43.952C146.37 43.952 145.182 44.444 144.246 45.428C143.334 46.388 142.878 47.684 142.878 49.316C142.878 50.948 143.334 52.256 144.246 53.24C145.182 54.2 146.37 54.68 147.81 54.68ZM162.19 32.288H167.806V59H162.19V32.288ZM173.018 39.632H178.634V59H173.018V39.632ZM175.826 36.932C174.794 36.932 173.954 36.632 173.306 36.032C172.658 35.432 172.334 34.688 172.334 33.8C172.334 32.912 172.658 32.168 173.306 31.568C173.954 30.968 174.794 30.668 175.826 30.668C176.858 30.668 177.698 30.956 178.346 31.532C178.994 32.108 179.318 32.828 179.318 33.692C179.318 34.628 178.994 35.408 178.346 36.032C177.698 36.632 176.858 36.932 175.826 36.932ZM193.206 59.288C191.142 59.288 189.282 58.868 187.626 58.028C185.994 57.164 184.71 55.976 183.774 54.464C182.862 52.952 182.406 51.236 182.406 49.316C182.406 47.396 182.862 45.68 183.774 44.168C184.71 42.656 185.994 41.48 187.626 40.64C189.282 39.776 191.142 39.344 193.206 39.344C195.246 39.344 197.022 39.776 198.534 40.64C200.07 41.48 201.186 42.692 201.882 44.276L197.526 46.616C196.518 44.84 195.066 43.952 193.17 43.952C191.706 43.952 190.494 44.432 189.534 45.392C188.574 46.352 188.094 47.66 188.094 49.316C188.094 50.972 188.574 52.28 189.534 53.24C190.494 54.2 191.706 54.68 193.17 54.68C195.09 54.68 196.542 53.792 197.526 52.016L201.882 54.392C201.186 55.928 200.07 57.128 198.534 57.992C197.022 58.856 195.246 59.288 193.206 59.288ZM223.987 59.432C221.995 59.432 220.063 59.168 218.191 58.64C216.343 58.088 214.855 57.38 213.727 56.516L215.707 52.124C216.787 52.916 218.071 53.552 219.559 54.032C221.047 54.512 222.535 54.752 224.023 54.752C225.679 54.752 226.903 54.512 227.695 54.032C228.487 53.528 228.883 52.868 228.883 52.052C228.883 51.452 228.643 50.96 228.163 50.576C227.707 50.168 227.107 49.844 226.363 49.604C225.643 49.364 224.659 49.1 223.411 48.812C221.491 48.356 219.919 47.9 218.695 47.444C217.471 46.988 216.415 46.256 215.527 45.248C214.663 44.24 214.231 42.896 214.231 41.216C214.231 39.752 214.627 38.432 215.419 37.256C216.211 36.056 217.399 35.108 218.983 34.412C220.591 33.716 222.547 33.368 224.851 33.368C226.459 33.368 228.031 33.56 229.567 33.944C231.103 34.328 232.447 34.88 233.599 35.6L231.799 40.028C229.471 38.708 227.143 38.048 224.815 38.048C223.183 38.048 221.971 38.312 221.179 38.84C220.411 39.368 220.027 40.064 220.027 40.928C220.027 41.792 220.471 42.44 221.359 42.872C222.271 43.28 223.651 43.688 225.499 44.096C227.419 44.552 228.991 45.008 230.215 45.464C231.439 45.92 232.483 46.64 233.347 47.624C234.235 48.608 234.679 49.94 234.679 51.62C234.679 53.06 234.271 54.38 233.455 55.58C232.663 56.756 231.463 57.692 229.855 58.388C228.247 59.084 226.291 59.432 223.987 59.432ZM250.76 58.064C250.208 58.472 249.524 58.784 248.708 59C247.916 59.192 247.076 59.288 246.188 59.288C243.884 59.288 242.096 58.7 240.824 57.524C239.576 56.348 238.952 54.62 238.952 52.34V44.384H235.964V40.064H238.952V35.348H244.568V40.064H249.392V44.384H244.568V52.268C244.568 53.084 244.772 53.72 245.18 54.176C245.612 54.608 246.212 54.824 246.98 54.824C247.868 54.824 248.624 54.584 249.248 54.104L250.76 58.064ZM262.531 59.288C260.491 59.288 258.655 58.868 257.023 58.028C255.415 57.164 254.155 55.976 253.243 54.464C252.331 52.952 251.875 51.236 251.875 49.316C251.875 47.396 252.331 45.68 253.243 44.168C254.155 42.656 255.415 41.48 257.023 40.64C258.655 39.776 260.491 39.344 262.531 39.344C264.571 39.344 266.395 39.776 268.003 40.64C269.611 41.48 270.871 42.656 271.783 44.168C272.695 45.68 273.151 47.396 273.151 49.316C273.151 51.236 272.695 52.952 271.783 54.464C270.871 55.976 269.611 57.164 268.003 58.028C266.395 58.868 264.571 59.288 262.531 59.288ZM262.531 54.68C263.971 54.68 265.147 54.2 266.059 53.24C266.995 52.256 267.463 50.948 267.463 49.316C267.463 47.684 266.995 46.388 266.059 45.428C265.147 44.444 263.971 43.952 262.531 43.952C261.091 43.952 259.903 44.444 258.967 45.428C258.031 46.388 257.563 47.684 257.563 49.316C257.563 50.948 258.031 52.256 258.967 53.24C259.903 54.2 261.091 54.68 262.531 54.68ZM282.269 42.188C282.941 41.252 283.841 40.544 284.969 40.064C286.121 39.584 287.441 39.344 288.929 39.344V44.528C288.305 44.48 287.885 44.456 287.669 44.456C286.061 44.456 284.801 44.912 283.889 45.824C282.977 46.712 282.521 48.056 282.521 49.856V59H276.905V39.632H282.269V42.188ZM292.268 39.632H297.884V59H292.268V39.632ZM295.076 36.932C294.044 36.932 293.204 36.632 292.556 36.032C291.908 35.432 291.584 34.688 291.584 33.8C291.584 32.912 291.908 32.168 292.556 31.568C293.204 30.968 294.044 30.668 295.076 30.668C296.108 30.668 296.948 30.956 297.596 31.532C298.244 32.108 298.568 32.828 298.568 33.692C298.568 34.628 298.244 35.408 297.596 36.032C296.948 36.632 296.108 36.932 295.076 36.932ZM322.068 49.388C322.068 49.46 322.032 49.964 321.96 50.9H307.308C307.572 52.1 308.196 53.048 309.18 53.744C310.164 54.44 311.388 54.788 312.852 54.788C313.86 54.788 314.748 54.644 315.516 54.356C316.308 54.044 317.04 53.564 317.712 52.916L320.7 56.156C318.876 58.244 316.212 59.288 312.708 59.288C310.524 59.288 308.592 58.868 306.912 58.028C305.232 57.164 303.936 55.976 303.024 54.464C302.112 52.952 301.656 51.236 301.656 49.316C301.656 47.42 302.1 45.716 302.988 44.204C303.9 42.668 305.136 41.48 306.696 40.64C308.28 39.776 310.044 39.344 311.988 39.344C313.884 39.344 315.6 39.752 317.136 40.568C318.672 41.384 319.872 42.56 320.736 44.096C321.624 45.608 322.068 47.372 322.068 49.388ZM312.024 43.592C310.752 43.592 309.684 43.952 308.82 44.672C307.956 45.392 307.428 46.376 307.236 47.624H316.776C316.584 46.4 316.056 45.428 315.192 44.708C314.328 43.964 313.272 43.592 312.024 43.592ZM332.323 59.288C330.715 59.288 329.143 59.096 327.607 58.712C326.071 58.304 324.847 57.8 323.935 57.2L325.807 53.168C326.671 53.72 327.715 54.176 328.939 54.536C330.163 54.872 331.363 55.04 332.539 55.04C334.915 55.04 336.103 54.452 336.103 53.276C336.103 52.724 335.779 52.328 335.131 52.088C334.483 51.848 333.487 51.644 332.143 51.476C330.559 51.236 329.251 50.96 328.219 50.648C327.187 50.336 326.287 49.784 325.519 48.992C324.775 48.2 324.403 47.072 324.403 45.608C324.403 44.384 324.751 43.304 325.447 42.368C326.167 41.408 327.199 40.664 328.543 40.136C329.911 39.608 331.519 39.344 333.367 39.344C334.735 39.344 336.091 39.5 337.435 39.812C338.803 40.1 339.931 40.508 340.819 41.036L338.947 45.032C337.243 44.072 335.383 43.592 333.367 43.592C332.167 43.592 331.267 43.76 330.667 44.096C330.067 44.432 329.767 44.864 329.767 45.392C329.767 45.992 330.091 46.412 330.739 46.652C331.387 46.892 332.419 47.12 333.835 47.336C335.419 47.6 336.715 47.888 337.723 48.2C338.731 48.488 339.607 49.028 340.351 49.82C341.095 50.612 341.467 51.716 341.467 53.132C341.467 54.332 341.107 55.4 340.387 56.336C339.667 57.272 338.611 58.004 337.219 58.532C335.851 59.036 334.219 59.288 332.323 59.288Z" fill="#D62828"/>
</g>
<defs>
<filter id="filter0_d" x="82.6481" y="30.668" width="258.819" height="32.764" filterUnits="userSpaceOnUse" color-interpolation-filters="sRGB">
<feFlood flood-opacity="0" result="BackgroundImageFix"/>
<feColorMatrix in="SourceAlpha" type="matrix" values="0 0 0 0 0 0 0 0 0 0 0 0 0 0 0 0 0 0 127 0"/>
<feOffset dx="-4" dy="4"/>
<feColorMatrix type="matrix" values="0 0 0 0 0 0 0 0 0 0.188235 0 0 0 0 0.286275 0 0 0 1 0"/>
<feBlend mode="normal" in2="BackgroundImageFix" result="effect1_dropShadow"/>
<feBlend mode="normal" in="SourceGraphic" in2="effect1_dropShadow" result="shape"/>
</filter>
<clipPath id="clip0">
<rect width="270" height="192" fill="white" transform="translate(78 92)"/>
</clipPath>
</defs>
</svg>
