<svg width="1036" height="628" viewBox="0 0 1036 628" fill="none" xmlns="http://www.w3.org/2000/svg">
<g clip-path="url(#clip0)">
<path d="M687 214.649L336.163 0L282.775 87.2614C297.194 96.6268 307.388 111.25 311.188 128.018C314.988 144.787 312.093 162.376 303.12 177.043C294.147 191.709 279.804 202.294 263.144 206.545C246.484 210.796 228.823 208.376 213.92 199.802L196.595 228.119H344.48V407.192L704.789 627.636L780.201 504.379H687V214.649Z" fill="#EAE2B7"/>
<path d="M514.424 480.085C549.515 480.085 577.962 475.687 577.962 470.263C577.962 464.839 549.515 460.441 514.424 460.441C479.334 460.441 450.887 464.839 450.887 470.263C450.887 475.687 479.334 480.085 514.424 480.085Z" fill="#D62828"/>
<path d="M516.48 383.279L580.498 310.045C585.181 305.257 588.876 299.594 591.37 293.378C593.865 287.163 595.111 280.517 595.037 273.82C594.963 267.123 593.571 260.506 590.94 254.347C588.309 248.188 584.491 242.608 579.703 237.924C574.915 233.241 569.252 229.546 563.037 227.052C556.821 224.557 550.175 223.311 543.478 223.385C536.781 223.459 530.164 224.851 524.005 227.482C517.846 230.113 512.266 233.931 507.583 238.719C502.795 234.036 497.132 230.341 490.916 227.846C484.701 225.352 478.055 224.106 471.358 224.18C464.661 224.253 458.044 225.645 451.885 228.276C445.726 230.907 440.145 234.726 435.462 239.513C430.779 244.301 427.084 249.964 424.59 256.18C422.095 262.395 420.849 269.041 420.923 275.738C420.997 282.435 422.389 289.052 425.02 295.211C427.651 301.37 431.469 306.951 436.257 311.634L507.48 383.279" fill="#D62828"/>
<path d="M346.48 227.119H1V540.379H346.48V227.119Z" stroke="#3F3D56" stroke-width="2" stroke-miterlimit="10"/>
<path d="M1034.48 190.119H689V503.379H1034.48V190.119Z" stroke="#3F3D56" stroke-width="2" stroke-miterlimit="10"/>
<path d="M249.48 187.279C273.228 187.279 292.48 168.027 292.48 144.279C292.48 120.531 273.228 101.279 249.48 101.279C225.732 101.279 206.48 120.531 206.48 144.279C206.48 168.027 225.732 187.279 249.48 187.279Z" fill="#D62828"/>
<path d="M351.48 378.279C351.48 378.279 405.48 359.279 428.48 385.279C451.48 411.279 515.48 370.279 515.48 370.279" stroke="#3F3D56" stroke-width="2" stroke-miterlimit="10"/>
<path d="M790.48 385.279C790.48 385.279 780.48 361.279 712.48 383.279C644.48 405.279 548.48 404.279 524.48 370.279L588.498 297.045C593.181 292.257 596.876 286.594 599.37 280.378C601.865 274.163 603.111 267.517 603.037 260.82C602.963 254.123 601.571 247.506 598.94 241.347C596.309 235.188 592.491 229.608 587.703 224.924C582.915 220.241 577.252 216.546 571.037 214.052C564.821 211.557 558.175 210.311 551.478 210.385C544.781 210.459 538.164 211.851 532.005 214.482C525.846 217.113 520.266 220.931 515.583 225.719C505.914 216.26 492.883 211.031 479.358 211.18C465.833 211.329 452.921 216.844 443.462 226.513C434.004 236.183 428.774 249.213 428.923 262.738C429.072 276.264 434.588 289.176 444.257 298.634L515.48 370.279" stroke="#3F3D56" stroke-width="2" stroke-miterlimit="10"/>
<path d="M522.536 471.922C557.626 471.922 586.073 467.525 586.073 462.101C586.073 456.677 557.626 452.279 522.536 452.279C487.445 452.279 458.999 456.677 458.999 462.101C458.999 467.525 487.445 471.922 522.536 471.922Z" stroke="#3F3D56" stroke-width="2" stroke-miterlimit="10"/>
<path d="M515.776 538.924C543.401 538.924 565.795 535.463 565.795 531.192C565.795 526.922 543.401 523.46 515.776 523.46C488.152 523.46 465.758 526.922 465.758 531.192C465.758 535.463 488.152 538.924 515.776 538.924Z" fill="#D62828"/>
<path d="M515.776 595.279C534.441 595.279 549.573 592.94 549.573 590.055C549.573 587.17 534.441 584.831 515.776 584.831C497.111 584.831 481.98 587.17 481.98 590.055C481.98 592.94 497.111 595.279 515.776 595.279Z" fill="#D62828"/>
<path d="M522.536 532.036C550.16 532.036 572.554 528.574 572.554 524.304C572.554 520.034 550.16 516.572 522.536 516.572C494.911 516.572 472.517 520.034 472.517 524.304C472.517 528.574 494.911 532.036 522.536 532.036Z" stroke="#3F3D56" stroke-width="2" stroke-miterlimit="10"/>
<path d="M522.536 590.094C541.201 590.094 556.332 587.756 556.332 584.87C556.332 581.985 541.201 579.646 522.536 579.646C503.87 579.646 488.739 581.985 488.739 584.87C488.739 587.756 503.87 590.094 522.536 590.094Z" stroke="#3F3D56" stroke-width="2" stroke-miterlimit="10"/>
<path d="M202.598 390.736C220.963 390.736 235.851 375.848 235.851 357.484C235.851 339.119 220.963 324.231 202.598 324.231C184.234 324.231 169.346 339.119 169.346 357.484C169.346 375.848 184.234 390.736 202.598 390.736Z" fill="#2F2E41"/>
<path d="M186.725 374.283C186.725 374.283 175.894 398.266 172.8 399.039C169.705 399.813 198.329 413.738 198.329 413.738C198.329 413.738 203.745 384.34 206.066 382.793C208.387 381.246 186.725 374.283 186.725 374.283Z" fill="#9F616A"/>
<path d="M202.971 392.077C215.362 392.077 225.407 382.032 225.407 369.641C225.407 357.251 215.362 347.206 202.971 347.206C190.581 347.206 180.536 357.251 180.536 369.641C180.536 382.032 190.581 392.077 202.971 392.077Z" fill="#9F616A"/>
<path d="M221.76 540.379H126.36C129.55 528.789 132.96 517.299 134.88 510.919C135.85 507.719 136.44 505.799 136.44 505.799C136.44 505.799 208.39 521.269 209.93 522.049C210.796 522.973 211.564 523.986 212.22 525.069C214.47 528.369 218.06 534.039 221.76 540.379Z" fill="#2F2E41"/>
<path d="M103.173 321.676L79.9639 286.089C79.9639 286.089 85.7033 248.758 77.967 255.721C70.2307 262.683 67.7825 290.801 67.7825 290.801L94.6629 331.733L103.173 321.676Z" fill="#9F616A"/>
<path d="M313.601 386.661L334.489 385.114C334.489 385.114 359.245 358.81 360.792 367.32C362.339 375.83 340.678 394.397 340.678 394.397L312.053 397.492L313.601 386.661Z" fill="#9F616A"/>
<path d="M161.195 394.397V386.661C161.195 386.661 141.081 373.509 141.854 371.188C142.628 368.868 140.307 367.32 140.307 367.32C140.307 367.32 137.986 364.226 137.986 363.452C137.986 362.678 134.892 361.905 134.892 361.905L115.551 339.47C115.551 339.47 104.72 317.808 102.399 318.582C100.078 319.355 87.7002 323.997 89.2475 327.091C90.7948 330.186 134.118 396.718 134.118 396.718C134.118 396.718 136.439 411.417 140.307 411.417C144.175 411.417 161.195 394.397 161.195 394.397Z" fill="#FCBF49"/>
<path d="M213.028 403.681C213.028 403.681 230.048 402.907 230.822 403.681C231.596 404.455 242.426 403.681 242.426 403.681C242.426 403.681 271.824 396.718 274.145 394.397C276.466 392.076 315.148 382.019 316.695 386.661C318.242 391.303 322.11 400.586 318.242 402.134C314.374 403.681 209.934 429.984 209.934 429.984L213.028 403.681Z" fill="#FCBF49"/>
<path d="M190.966 336.246C198.566 336.246 204.726 330.085 204.726 322.486C204.726 314.887 198.566 308.727 190.966 308.727C183.367 308.727 177.207 314.887 177.207 322.486C177.207 330.085 183.367 336.246 190.966 336.246Z" fill="#2F2E41"/>
<path d="M172.62 315.033C172.62 311.632 173.88 308.351 176.156 305.824C178.433 303.297 181.564 301.702 184.946 301.348C184.47 301.298 183.992 301.274 183.513 301.273C179.864 301.273 176.364 302.723 173.784 305.303C171.203 307.884 169.754 311.384 169.754 315.033C169.754 318.682 171.203 322.182 173.784 324.762C176.364 327.343 179.864 328.793 183.513 328.793C183.992 328.792 184.47 328.768 184.946 328.718C181.564 328.364 178.433 326.769 176.156 324.242C173.88 321.715 172.62 318.434 172.62 315.033V315.033Z" fill="#2F2E41"/>
<path d="M206.466 364.193C219.132 364.193 229.399 358.033 229.399 350.433C229.399 342.834 219.132 336.674 206.466 336.674C193.801 336.674 183.534 342.834 183.534 350.433C183.534 358.033 193.801 364.193 206.466 364.193Z" fill="#2F2E41"/>
<path d="M180.149 386.274C180.149 386.274 173.187 391.69 171.639 392.463C170.092 393.237 160.808 385.501 159.261 385.501C157.714 385.501 137.599 408.71 137.599 408.71C137.599 408.71 141.338 413.015 137.599 435.013C136.198 443.263 133.416 478.534 133.416 483.176C133.416 487.817 118.259 499.224 132.184 509.282C146.109 519.339 212.642 530.17 213.415 523.981C214.189 517.792 205.679 501.545 209.547 493.809C213.415 486.073 213.415 457.448 213.415 457.448L218.057 427.277L221.925 403.294C221.925 403.294 203.745 398.266 202.198 398.266C200.65 398.266 193.688 409.097 180.149 386.274Z" fill="#FCBF49"/>
<path d="M877.288 312.385L861.457 312.999L862.246 333.352L878.077 332.738L877.288 312.385Z" fill="#D62828"/>
<path d="M805.876 383.668C805.876 383.668 783.952 373.194 784.303 382.24C784.654 391.286 806.402 397.237 806.402 397.237L805.876 383.668Z" fill="#FFB9B9"/>
<path d="M907.82 503.379H803.83C806 493.199 810.13 480.919 813.36 472.069C815.92 465.069 817.9 460.209 817.9 460.209C829.71 446.889 846.85 446.549 862.93 449.839C864.85 450.229 866.76 450.669 868.64 451.159C868.86 451.209 869.08 451.269 869.3 451.329C873.06 452.299 876.71 453.419 880.16 454.539C886.11 456.479 891.48 458.439 895.82 459.769C898.002 460.491 900.244 461.016 902.52 461.339C903.018 461.392 903.519 461.412 904.02 461.399C905.74 461.329 906.93 463.179 907.7 466.409C909.44 473.699 909.04 488.059 907.82 503.379Z" fill="#2F2E41"/>
<path d="M887.307 293.311C887.307 293.311 899.36 312.095 904.058 316.443C908.757 320.79 895.538 330.363 895.538 330.363L871.88 333.545C871.88 333.545 872.177 312.017 870.959 309.799C869.741 307.581 887.307 293.311 887.307 293.311Z" fill="#FFB9B9"/>
<path d="M866.743 317.89C866.743 317.89 871.617 326.761 876.14 326.585C880.663 326.41 904.058 316.443 905.057 313.007C906.057 309.57 912.807 337.62 912.807 337.62L855.56 438.365L841.596 428.714L848.362 369.564L853.919 337.639L866.743 317.89Z" fill="#D62828"/>
<path d="M907.169 408.052C904.805 412.644 903.599 417.745 903.657 422.91C903.666 423.136 903.675 423.362 903.695 423.588C904.236 434.054 908.092 446.158 909.475 454.96C910.479 461.274 910.193 465.883 906.498 466.966C897.539 469.579 907.804 471.446 873.145 482.982C838.486 494.518 832.437 484.56 832.35 482.299C832.262 480.037 837.258 462.856 836.083 461.77C834.909 460.683 819.648 475.996 815.037 473.91C810.427 471.824 814.511 460.341 814.511 460.341C814.511 460.341 824.898 436.157 824.679 430.503C824.459 424.849 840.412 398.183 840.412 398.183L851.263 327.55C851.263 327.55 855.435 318.328 861.045 316.978C864.579 316.244 868.261 316.913 871.31 318.845L861.922 339.594L852.018 376.217L853.675 389.742C853.675 389.742 865.192 365.514 872.757 356.16C880.321 346.807 896.45 324.665 896.45 324.665C896.45 324.665 900.215 311.96 897.373 308.163C894.53 304.355 909.23 303.785 915.498 319.397C918.819 327.671 924.213 340.009 927.591 351.497C930.602 361.675 932.024 371.189 929.041 376.627C924.483 384.935 913.015 395.855 907.169 408.052Z" fill="#003049"/>
<path opacity="0.1" d="M929.041 376.627C924.483 384.935 913.015 395.855 907.169 408.052C905.642 402.551 903.779 396.859 903.779 396.859C903.779 396.859 896.634 358.632 917.768 348.753C921.27 348.414 924.772 349.393 927.591 351.497C930.602 361.675 932.024 371.189 929.041 376.627Z" fill="black"/>
<path d="M845.145 374.218L827.229 379.443L802.352 380.408L799.792 402.024L840.675 404.968C840.675 404.968 850.887 376.261 845.145 374.218Z" fill="#003049"/>
<path d="M874.361 446.898C874.361 446.898 850.392 450.875 855.863 458.088C861.334 465.301 882.567 457.718 882.567 457.718L874.361 446.898Z" fill="#FFB9B9"/>
<path opacity="0.1" d="M903.695 423.588C904.236 434.054 908.092 446.158 909.475 454.96C901.839 462.187 894.578 468.561 891.842 468.667C886.188 468.886 877.098 468.106 873.749 469.369C870.401 470.631 868.437 449.19 868.437 449.19C868.437 449.19 870.435 442.318 879.35 438.575C885.367 436.043 896.901 429.174 903.695 423.588Z" fill="black"/>
<path d="M917.505 341.968C917.505 341.968 936.641 338.961 935.607 370.71C934.573 402.459 937.624 422.726 929.928 428.686C922.232 434.647 897.232 461.663 891.579 461.883C885.925 462.102 876.835 461.322 873.486 462.584C870.138 463.846 868.174 442.406 868.174 442.406C868.174 442.406 870.172 435.533 879.087 431.79C888.002 428.047 909.004 414.776 908.828 410.253C908.653 405.73 903.516 390.074 903.516 390.074C903.516 390.074 896.371 351.847 917.505 341.968Z" fill="#003049"/>
<path d="M870.433 321.125C884.182 321.125 895.328 309.979 895.328 296.23C895.328 282.48 884.182 271.334 870.433 271.334C856.683 271.334 845.537 282.48 845.537 296.23C845.537 309.979 856.683 321.125 870.433 321.125Z" fill="#FFB9B9"/>
<path d="M853.67 260.547C853.07 261.065 852.35 261.425 851.577 261.598C851.188 261.667 850.788 261.58 850.464 261.355C850.14 261.13 849.917 260.786 849.846 260.399C849.398 261.641 848.566 262.708 847.471 263.445C846.308 264.051 844.509 263.543 844.342 262.242C844.172 263.23 843.735 264.152 843.078 264.909C842.736 265.271 842.265 265.483 841.767 265.5C841.269 265.517 840.784 265.336 840.419 264.998C840.928 267.781 840.614 270.643 840.773 273.468C840.933 276.293 841.687 279.288 843.821 281.145C846.933 283.854 851.614 283.185 855.708 282.672C856.327 282.542 856.97 282.577 857.571 282.774C859.104 283.427 859.035 285.561 859.055 287.228C859.18 290.151 860.337 292.936 862.321 295.087C864.305 297.238 866.987 298.617 869.891 298.978C871.516 299.229 873.174 298.825 874.501 297.853C875.663 296.868 876.257 295.262 877.589 294.522C879.756 293.318 882.384 295.074 883.968 296.98C885.552 298.887 887.113 301.232 889.568 301.581C892.813 302.043 895.285 298.735 896.498 295.689C898.172 291.42 898.973 286.859 898.856 282.276C898.739 277.692 897.705 273.178 895.816 269C889.038 254.227 865.887 251.89 853.67 260.547Z" fill="#2F2E41"/>
</g>
<defs>
<clipPath id="clip0">
<rect width="1035.48" height="627.636" fill="white"/>
</clipPath>
</defs>
</svg>
