<svg width="523" height="320" viewBox="0 0 523 320" fill="none" xmlns="http://www.w3.org/2000/svg">
<g clip-path="url(#clip0)">
<path d="M245.324 319.746L244.665 319.061C244.796 318.936 257.757 306.245 262.696 282.528C267.257 260.628 265.717 224.571 232.473 177.168C218.582 157.361 209.11 138.648 204.318 121.548C200.403 107.576 199.574 94.5866 201.855 82.9419C206.363 59.9191 221.686 49.8118 221.84 49.7125L222.355 50.511C222.204 50.6084 207.201 60.526 202.781 83.1539C197.711 109.115 207.962 140.562 233.251 176.622C248.018 197.679 257.847 218.297 262.468 237.906C266.169 253.614 266.554 268.713 263.614 282.783C258.601 306.764 245.456 319.619 245.324 319.746Z" fill="#F2F2F2"/>
<path d="M213.426 102.739C233.738 102.739 250.205 86.2721 250.205 65.9596C250.205 45.6471 233.738 29.1806 213.426 29.1806C193.113 29.1806 176.647 45.6471 176.647 65.9596C176.647 86.2721 193.113 102.739 213.426 102.739Z" fill="#F2F2F2"/>
<path d="M222.097 100.224C212.186 100.224 202.497 97.2847 194.256 91.7784C186.016 86.272 179.593 78.4457 175.8 69.2889C172.007 60.1322 171.014 50.0564 172.948 40.3356C174.882 30.6149 179.654 21.6858 186.662 14.6775C193.671 7.66924 202.6 2.89652 212.32 0.962923C222.041 -0.970677 232.117 0.0216827 241.274 3.81451C250.431 7.60733 258.257 14.0303 263.763 22.2711C269.27 30.5119 272.209 40.2006 272.209 50.1117C272.194 63.3976 266.909 76.135 257.515 85.5295C248.12 94.9241 235.383 100.209 222.097 100.224ZM222.097 0.950203C212.374 0.95018 202.869 3.83344 194.784 9.23538C186.7 14.6373 180.398 22.3153 176.678 31.2985C172.957 40.2816 171.983 50.1664 173.88 59.7028C175.777 69.2392 180.459 77.999 187.334 84.8744C194.21 91.7498 202.97 96.432 212.506 98.3289C222.042 100.226 231.927 99.2522 240.91 95.5313C249.893 91.8103 257.571 85.5091 262.973 77.4245C268.375 69.3399 271.259 59.835 271.259 50.1117C271.244 37.0778 266.06 24.582 256.843 15.3656C247.627 6.14922 235.131 0.964975 222.097 0.950203Z" fill="#F2F2F2"/>
<path d="M250.205 179.885C267.049 179.885 280.704 166.23 280.704 149.385C280.704 132.541 267.049 118.886 250.205 118.886C233.36 118.886 219.705 132.541 219.705 149.385C219.705 166.23 233.36 179.885 250.205 179.885Z" fill="#F2F2F2"/>
<path d="M234.656 285.737C251.5 285.737 265.155 272.082 265.155 255.237C265.155 238.393 251.5 224.737 234.656 224.737C217.811 224.737 204.156 238.393 204.156 255.237C204.156 272.082 217.811 285.737 234.656 285.737Z" fill="#F2F2F2"/>
<path d="M362.697 54.1607H251.05V126.85H362.697V54.1607Z" fill="#D62828"/>
<path d="M511.667 319.738H408.267C408.267 319.738 406.171 288.998 418.572 288.648C430.973 288.299 429.575 302.272 445.12 283.059C460.665 263.846 479.529 264.894 481.974 276.247C484.419 287.6 477.258 296.683 490.358 293.888C503.457 291.093 522.321 298.429 511.667 319.738Z" fill="#F2F2F2"/>
<path d="M458.221 319.745L457.872 319.731C458.686 299.492 462.925 286.488 466.337 279.143C470.043 271.168 473.613 267.939 473.649 267.908L473.881 268.169C473.846 268.2 470.317 271.396 466.641 279.318C463.248 286.631 459.032 299.582 458.221 319.745Z" fill="white"/>
<path d="M495.644 319.787L495.309 319.689C497.909 311.111 502.597 303.313 508.952 296.992L509.186 297.25C502.879 303.527 498.226 311.271 495.644 319.787Z" fill="white"/>
<path d="M424.553 319.762L424.207 319.714C425.334 312.126 424.141 304.374 420.785 297.476C419.408 294.583 417.585 291.924 415.384 289.596L415.626 289.343C417.856 291.7 419.702 294.392 421.098 297.322C424.485 304.282 425.69 312.105 424.553 319.762Z" fill="white"/>
<path d="M40.6385 319.638L40.4 319.148C40.3274 318.999 33.1843 304.067 37.1669 289.345C41.1498 274.622 54.8465 265.328 54.9843 265.236L55.4369 264.933L55.6754 265.423C55.748 265.572 62.8911 280.504 58.9083 295.226C54.9257 309.949 41.2289 319.243 41.0911 319.335L40.6385 319.638ZM55.0537 266.35C52.6557 268.095 41.562 276.737 38.0842 289.593C34.6038 302.459 39.8298 315.507 41.0217 318.221C43.4197 316.476 54.5134 307.834 57.991 294.978C61.4716 282.112 56.2456 269.064 55.0537 266.35Z" fill="#3F3D56"/>
<path d="M22.2217 295.102C26.2041 309.823 39.8444 318.94 39.8444 318.94C39.8444 318.94 47.0281 304.19 43.0458 289.469C39.0635 274.748 25.4231 265.631 25.4231 265.631C25.4231 265.631 18.2394 280.381 22.2217 295.102Z" fill="#D62828"/>
<path d="M40.8536 319.432L40.3098 319.403C40.1442 319.394 23.6233 318.375 12.6943 307.737C1.76573 297.098 0.303567 280.611 0.290112 280.445L0.245804 279.903L0.789563 279.932C0.9552 279.941 17.4761 280.959 28.4049 291.598C39.3336 302.237 40.7958 318.724 40.8093 318.89L40.8536 319.432ZM1.29807 280.926C1.65647 283.87 3.81411 297.766 13.3573 307.056C22.9004 316.346 36.8491 318.129 39.8013 318.408C39.4429 315.465 37.2853 301.569 27.7419 292.279C18.1917 282.982 4.24884 281.204 1.29807 280.926Z" fill="#3F3D56"/>
<path d="M52.598 291.939C41.6704 302.576 40.3357 318.928 40.3357 318.928C40.3357 318.928 56.7181 318.034 67.6456 307.396C78.5732 296.759 79.9079 280.407 79.9079 280.407C79.9079 280.407 63.5255 281.301 52.598 291.939Z" fill="#3F3D56"/>
<path d="M141.441 199.77C130.513 210.408 129.178 226.76 129.178 226.76C129.178 226.76 145.561 225.866 156.488 215.228C167.416 204.591 168.75 188.238 168.75 188.238C168.75 188.238 152.368 189.133 141.441 199.77Z" fill="#3F3D56"/>
<path d="M40.108 263.202C44.0438 263.202 47.2344 260.011 47.2344 256.076C47.2344 252.14 44.0438 248.949 40.108 248.949C36.1722 248.949 32.9816 252.14 32.9816 256.076C32.9816 260.011 36.1722 263.202 40.108 263.202Z" fill="#D62828"/>
<path d="M126.566 319.271L125.908 318.586C126.011 318.487 136.291 308.417 140.206 289.602C143.822 272.224 142.594 243.612 116.209 205.988C95.9728 177.133 87.7837 151.923 91.8695 131.058C95.4587 112.728 107.666 104.676 107.789 104.596L108.304 105.395C108.184 105.472 96.2971 113.335 92.796 131.27C88.7758 151.866 96.9148 176.822 116.987 205.443C128.725 222.181 136.54 238.573 140.213 254.162C143.156 266.655 143.463 278.664 141.124 289.856C137.136 308.937 126.672 319.17 126.566 319.271Z" fill="#3F3D56"/>
<path d="M121.824 128.275C169.054 128.275 207.341 121.707 207.341 113.604C207.341 105.502 169.054 98.9332 121.824 98.9332C74.5944 98.9332 36.3072 105.502 36.3072 113.604C36.3072 121.707 74.5944 128.275 121.824 128.275Z" fill="#D62828"/>
<path d="M105.909 123.999C46.6329 123.999 0.200104 115.861 0.200104 105.471C0.200104 95.0809 46.6329 86.9421 105.909 86.9421C165.184 86.9421 211.617 95.0809 211.617 105.471C211.617 115.861 165.184 123.999 105.909 123.999ZM105.909 87.8923C49.1236 87.8923 1.15029 95.9422 1.15029 105.471C1.15029 114.999 49.1236 123.049 105.909 123.049C162.693 123.049 210.667 114.999 210.667 105.471C210.667 95.9422 162.693 87.8923 105.909 87.8923Z" fill="#3F3D56"/>
<path d="M129.929 33.4676C129.929 33.4676 117.257 29.8979 113.509 47.211C109.761 64.5241 112.616 73.2699 112.616 73.2699L140.906 69.9679C140.906 69.9679 148.938 38.7329 129.929 33.4676Z" fill="#2F2E41"/>
<path d="M110.97 108.454C110.97 108.454 92.3815 110.306 95.6924 117.81C99.0032 125.315 99.0032 125.977 99.0032 125.977L115.337 155.112L120.634 149.594C120.634 149.594 114.674 136.572 114.674 132.378C114.674 128.184 108.494 120.9 108.494 120.9L119.31 120.017L110.97 108.454Z" fill="#A0616A"/>
<path d="M161.909 117.369L168.089 130.833C168.089 130.833 172.724 135.468 177.801 154.009C182.878 172.549 183.981 171.887 183.981 171.887L176.256 173.432C176.256 173.432 167.648 153.346 164.778 151.801C161.909 150.256 158.377 136.13 158.377 136.13L148.224 123.328L151.314 116.486L161.909 117.369Z" fill="#A0616A"/>
<path d="M154.404 101.918L163.895 119.576C163.895 119.576 151.976 114.058 150.211 126.198L139.395 117.81C139.395 117.81 124.386 122.666 115.337 120.9C115.337 120.9 117.985 112.513 108.494 108.761L129.904 106.112L129.021 101.477L131.229 97.0624L154.404 101.918Z" fill="#2F2E41"/>
<path d="M116.661 151.139C116.661 151.139 110.701 150.256 112.247 155.554L115.337 166.148C115.337 166.148 111.364 176.964 117.544 174.536C123.724 172.108 127.697 157.099 127.697 157.099C127.697 157.099 130.346 145.621 127.697 145.621C125.048 145.621 116.661 143.855 117.544 145.621C118.427 147.387 116.661 151.139 116.661 151.139Z" fill="#2F2E41"/>
<path d="M183.319 168.797C183.319 168.797 175.594 166.811 173.828 169.901C172.062 172.991 172.504 183.144 172.504 183.365C172.504 183.585 175.152 185.793 176.035 185.793C176.918 185.793 182.436 195.725 189.941 192.194C197.445 188.662 183.319 168.797 183.319 168.797Z" fill="#2F2E41"/>
<path d="M127.697 60.4224C132.451 60.4224 136.305 56.5684 136.305 51.8143C136.305 47.0601 132.451 43.2061 127.697 43.2061C122.943 43.2061 119.089 47.0601 119.089 51.8143C119.089 56.5684 122.943 60.4224 127.697 60.4224Z" fill="#A0616A"/>
<path d="M134.76 53.58C134.76 53.58 136.526 62.8504 138.071 64.1747C139.616 65.499 126.373 67.4855 126.373 67.4855C126.373 67.4855 128.359 61.0846 125.931 57.7738C123.503 54.4629 134.76 53.58 134.76 53.58Z" fill="#A0616A"/>
<path d="M157.936 106.112C156.433 106.112 152.606 105.49 148.315 104.688C144.602 103.995 140.539 103.172 137.334 102.505C133.902 101.79 131.449 101.256 131.449 101.256C131.449 101.256 130.566 106.774 127.697 106.112C125.225 105.543 117.837 79.7379 115.84 72.6063C115.694 72.0856 115.722 71.5314 115.92 71.0282C116.118 70.525 116.475 70.1002 116.937 69.8186L127.083 63.6229L129.684 64.6162C129.684 64.6162 134.076 61.2215 136.625 61.153C139.175 61.0846 143.589 60.4224 143.589 60.4224C143.589 60.4224 148.666 60.8639 149.549 64.6162C150.431 68.3684 150.873 91.765 154.184 95.9587C157.495 100.152 162.13 106.112 157.936 106.112Z" fill="#D0CDE1"/>
<path d="M127.035 118.472C127.035 118.472 127.035 127.081 132.774 125.756C138.512 124.432 133.215 116.486 133.215 116.486L127.035 118.472Z" fill="#A0616A"/>
<path d="M142.927 119.355C142.927 119.355 140.94 129.508 136.747 127.963C132.553 126.418 136.747 117.369 136.747 117.369L142.927 119.355Z" fill="#A0616A"/>
<path opacity="0.15" d="M152.197 95.2966C152.197 95.2966 150.036 100.453 148.315 104.688C144.602 103.995 140.539 103.172 137.334 102.505C137.564 101.896 137.887 101.325 138.292 100.815C139.837 99.0488 138.954 98.6074 138.954 98.6074C137.63 95.9587 138.733 92.4272 138.733 92.4272C136.085 85.3641 140.058 76.5352 140.058 76.5352L152.197 95.2966Z" fill="black"/>
<path d="M140.72 76.5352C140.72 76.5352 136.747 85.3641 139.395 92.4272C139.395 92.4272 138.292 95.9587 139.616 98.6074C139.616 98.6074 140.499 99.0488 138.954 100.815C137.409 102.58 136.085 108.761 137.188 110.085C138.292 111.409 135.643 113.837 136.305 115.162C136.967 116.486 135.202 118.252 135.202 118.252C135.202 118.252 141.823 119.576 142.927 121.562C142.927 121.562 144.251 120.017 143.589 118.252C142.927 116.486 143.368 115.824 144.031 114.72C144.693 113.617 146.679 111.189 146.9 110.085C147.121 108.981 152.859 95.2966 152.859 95.2966L150.168 70.358L140.72 76.5352Z" fill="#D0CDE1"/>
<path d="M117.765 70.3549L117.352 70.4299C116.777 70.5342 116.257 70.838 115.885 71.288C115.512 71.7379 115.31 72.305 115.314 72.8893C115.33 75.1054 115.454 79.0383 115.999 84.4812C116.882 93.31 119.972 106.553 120.634 107.878C121.685 110.221 122.864 112.505 124.165 114.72C126.152 118.031 126.593 116.927 126.152 118.472C126.018 118.898 126.009 119.353 126.126 119.784C126.243 120.214 126.482 120.602 126.814 120.9C126.814 120.9 130.787 116.486 134.76 118.914C135.044 118.29 135.194 117.613 135.202 116.927C135.202 115.824 135.864 114.72 134.76 114.058C133.657 113.396 135.422 110.526 133.657 108.981C131.891 107.436 131.67 107.657 131.891 106.112C131.994 105.061 131.842 104.001 131.449 103.022L117.765 70.3549Z" fill="#D0CDE1"/>
<path d="M130.915 40.7565C130.915 40.7565 127.346 50.2163 118.6 54.143L117.172 45.7541L130.915 40.7565Z" fill="#2F2E41"/>
<path d="M136.084 50.821C136.755 50.821 137.298 49.7834 137.298 48.5035C137.298 47.2235 136.755 46.1859 136.084 46.1859C135.414 46.1859 134.871 47.2235 134.871 48.5035C134.871 49.7834 135.414 50.821 136.084 50.821Z" fill="#A0616A"/>
<path d="M385.687 170.492C394.203 170.492 401.106 163.589 401.106 155.073C401.106 146.558 394.203 139.655 385.687 139.655C377.172 139.655 370.268 146.558 370.268 155.073C370.268 163.589 377.172 170.492 385.687 170.492Z" fill="#2F2E41"/>
<path d="M383.628 139.944C386.457 139.944 388.75 137.651 388.75 134.822C388.75 131.994 386.457 129.701 383.628 129.701C380.799 129.701 378.506 131.994 378.506 134.822C378.506 137.651 380.799 139.944 383.628 139.944Z" fill="#2F2E41"/>
<path d="M377.865 137.994C377.075 137 376.683 135.749 376.764 134.482C376.845 133.216 377.393 132.024 378.302 131.139C378.159 131.231 378.019 131.331 377.883 131.439C377.356 131.857 376.917 132.375 376.591 132.963C376.264 133.551 376.057 134.198 375.98 134.866C375.904 135.534 375.959 136.211 376.144 136.857C376.329 137.504 376.64 138.108 377.058 138.635C377.477 139.161 377.995 139.6 378.583 139.927C379.171 140.253 379.817 140.461 380.486 140.537C381.154 140.614 381.831 140.558 382.477 140.373C383.124 140.188 383.728 139.878 384.254 139.459C384.391 139.351 384.52 139.238 384.641 139.119C383.573 139.804 382.289 140.069 381.037 139.861C379.784 139.653 378.654 138.988 377.865 137.994Z" fill="#2F2E41"/>
<path d="M360.432 210.833L351.508 218.384C351.508 218.384 338.122 222.503 344.643 226.965C351.165 231.427 354.94 221.473 354.94 221.473L365.924 214.608L360.432 210.833Z" fill="#FFB9B9"/>
<path d="M379.654 177.881L378.624 177.195C378.624 177.195 374.505 177.195 373.819 181.314C373.132 185.433 371.073 194.014 371.073 194.014C371.073 194.014 364.208 198.133 364.894 205.684L357.686 211.862C357.686 211.862 366.267 214.608 364.551 217.011L377.251 205.341L377.594 183.03L379.654 177.881Z" fill="#2F2E41"/>
<path d="M383.773 169.987C388.701 169.987 392.697 165.991 392.697 161.063C392.697 156.134 388.701 152.138 383.773 152.138C378.844 152.138 374.848 156.134 374.848 161.063C374.848 165.991 378.844 169.987 383.773 169.987Z" fill="#FFB9B9"/>
<path d="M381.027 167.241C381.027 167.241 386.519 173.419 383.086 176.852C379.654 180.284 378.624 197.103 378.624 197.103L393.727 174.106C393.727 174.106 389.608 165.868 389.951 163.122L381.027 167.241Z" fill="#FFB9B9"/>
<path d="M379.997 191.268C379.997 191.268 388.235 173.174 392.697 171.924L404.367 174.792C404.367 174.792 395.1 206.714 396.129 209.803C397.159 212.892 402.994 217.354 400.935 244.47C400.935 244.47 427.364 292.867 420.843 301.105C414.321 309.343 389.951 315.521 389.608 313.118C389.264 310.715 378.281 273.646 379.997 262.319C379.997 262.319 379.997 311.402 377.938 312.432C375.878 313.461 342.927 321.013 343.957 315.178C344.986 309.343 361.462 245.157 361.462 245.157L374.162 205.341L374.505 199.506C374.505 199.506 369.013 195.73 373.132 187.149C377.251 178.568 378.624 177.195 378.624 177.195L383.569 176.267C383.569 176.267 378.967 188.865 379.997 191.268Z" fill="#2F2E41"/>
<path d="M398.532 217.011L394.413 225.935C394.413 225.935 383.773 237.262 391.324 237.605C398.875 237.948 399.562 227.308 399.562 227.308L405.053 217.011H398.532Z" fill="#FFB9B9"/>
<path d="M399.905 175.136H404.367C404.367 175.136 405.74 173.076 407.113 181.657C408.486 190.238 407.799 203.281 407.799 203.281L405.74 220.443C405.74 220.443 398.532 217.697 396.816 218.384C395.1 219.07 396.816 218.041 396.816 218.041L399.905 206.37L396.129 189.552L399.905 175.136Z" fill="#2F2E41"/>
<path d="M382.869 147.904C377.04 149.488 373.064 153.528 373.988 156.928C374.401 158.45 375.729 159.582 377.588 160.23L379.22 158.206L379.294 160.663C379.552 160.707 379.815 160.746 380.085 160.775L382.158 156.408L383.34 160.759C384.311 160.655 385.273 160.474 386.215 160.217C392.044 158.634 396.021 154.593 395.097 151.193C394.173 147.792 388.698 146.32 382.869 147.904Z" fill="#2F2E41"/>
<path d="M392.869 160.891C393.437 160.891 393.898 160.123 393.898 159.175C393.898 158.227 393.437 157.459 392.869 157.459C392.3 157.459 391.839 158.227 391.839 159.175C391.839 160.123 392.3 160.891 392.869 160.891Z" fill="#FFB9B9"/>
<path d="M357.946 319.738C362.406 319.738 366.022 318.143 366.022 316.175C366.022 314.207 362.406 312.612 357.946 312.612C353.485 312.612 349.869 314.207 349.869 316.175C349.869 318.143 353.485 319.738 357.946 319.738Z" fill="#2F2E41"/>
<path d="M401.786 318.041C407.35 315.848 411.081 312.091 410.118 309.65C409.156 307.209 403.865 307.008 398.301 309.201C392.737 311.395 389.006 315.151 389.968 317.593C390.93 320.034 396.221 320.234 401.786 318.041Z" fill="#2F2E41"/>
<path d="M347.244 222.471C347.102 222.436 333.012 218.85 327.651 204.605C321.539 188.369 328.724 165.473 349.005 136.554C373.776 101.232 375.121 89.364 371.888 85.6275C367.798 80.9012 354.963 87.301 354.834 87.3662L354.406 86.5181C354.96 86.2378 368.032 79.7213 372.606 85.0051C377.632 90.8115 369.953 108.339 349.783 137.1C338.793 152.771 331.61 166.837 328.433 178.908C325.857 188.694 325.891 197.222 328.534 204.256C333.711 218.032 347.332 221.514 347.469 221.548L347.244 222.471Z" fill="#3F3D56"/>
<path d="M355.095 115.448H235.847V37.5324H355.095V115.448ZM236.797 114.498H354.145V38.4825H236.797V114.498Z" fill="#3F3D56"/>
<path d="M285.509 86.8242C288.273 86.8242 290.514 84.5838 290.514 81.8201C290.514 79.0564 288.273 76.816 285.509 76.816C282.746 76.816 280.505 79.0564 280.505 81.8201C280.505 84.5838 282.746 86.8242 285.509 86.8242Z" fill="#3F3D56"/>
<path d="M328.237 86.8242C331 86.8242 333.241 84.5838 333.241 81.8201C333.241 79.0564 331 76.816 328.237 76.816C325.473 76.816 323.233 79.0564 323.233 81.8201C323.233 84.5838 325.473 86.8242 328.237 86.8242Z" fill="#3F3D56"/>
<path d="M328.237 102.221C328.237 103.71 318.586 107.995 306.681 107.995C294.776 107.995 285.125 103.71 285.125 102.221C285.125 100.733 294.776 102.606 306.681 102.606C318.586 102.606 328.237 100.733 328.237 102.221Z" fill="#3F3D56"/>
<path d="M522.603 319.05H0V320H522.603V319.05Z" fill="#3F3D56"/>
</g>
<defs>
<clipPath id="clip0">
<rect width="522.603" height="320" fill="white"/>
</clipPath>
</defs>
</svg>
