<svg width="564" height="382" viewBox="0 0 564 382" fill="none" xmlns="http://www.w3.org/2000/svg">
<g clip-path="url(#clip0)">
<path d="M462.899 306.993H43.979V308.065H462.899V306.993Z" fill="#F77F00"/>
<path d="M380.816 0.535767H207.643V132.87H380.816V0.535767Z" fill="#D62828"/>
<path d="M3.43835 212.698C3.43835 212.698 70.0051 1.60728 274.21 131.798C478.414 261.989 560.997 221.806 560.997 221.806" fill="white"/>
<path d="M397.834 342.889H210.646V343.961H397.834V342.889Z" fill="#F77F00"/>
<path d="M503.875 325.209H354.048C354.048 325.209 351.011 277.528 368.98 276.986C386.95 276.444 384.925 298.117 407.449 268.316C429.974 238.515 457.307 240.141 460.851 257.751C464.394 275.36 454.017 289.448 472.999 285.113C491.98 280.779 519.314 292.157 503.875 325.209Z" fill="#D62828"/>
<path d="M426.433 325.22L425.927 325.198C427.106 293.805 433.248 273.635 438.193 262.242C443.562 249.872 448.736 244.864 448.787 244.815L449.124 245.22C449.073 245.269 443.959 250.227 438.634 262.513C433.716 273.857 427.608 293.945 426.433 325.22Z" fill="#F2F2F2"/>
<path d="M480.659 325.285L480.173 325.133C486.024 303.635 499.803 290.062 499.941 289.927L500.281 290.328C500.144 290.462 486.468 303.939 480.659 325.285Z" fill="#F2F2F2"/>
<path d="M377.647 325.246L377.145 325.172C379.13 309.846 375.545 297.955 372.187 290.679C368.551 282.801 364.403 278.498 364.361 278.455L364.711 278.064C364.753 278.107 368.966 282.476 372.641 290.439C376.03 297.783 379.65 309.784 377.647 325.246Z" fill="#F2F2F2"/>
<path d="M150.021 349.318H0.193833C0.193833 349.318 -2.84321 301.637 15.1259 301.095C33.095 300.553 31.0703 322.227 53.595 292.426C76.1196 262.625 103.453 264.25 106.996 281.86C110.539 299.47 100.163 313.557 119.144 309.223C138.126 304.888 165.459 316.266 150.021 349.318Z" fill="#D62828"/>
<path d="M72.5782 349.329L72.0725 349.308C73.2518 317.914 79.3938 297.744 84.3387 286.352C89.7076 273.981 94.8813 268.974 94.9329 268.924L95.2693 269.329C95.2184 269.378 90.105 274.336 84.7791 286.622C79.8616 297.967 73.7532 318.054 72.5782 349.329Z" fill="#F2F2F2"/>
<path d="M126.804 349.394L126.318 349.243C132.169 327.744 145.948 314.171 146.087 314.036L146.427 314.438C146.289 314.571 132.614 328.048 126.804 349.394Z" fill="#F2F2F2"/>
<path d="M23.7922 349.356L23.2908 349.281C25.2759 333.955 21.6901 322.064 18.3322 314.788C14.6965 306.91 10.5481 302.607 10.5066 302.564L10.8568 302.173C10.8989 302.217 15.1114 306.586 18.786 314.548C22.1752 321.893 25.795 333.893 23.7922 349.356Z" fill="#F2F2F2"/>
<path d="M564 380.928H12.9479V382H564V380.928Z" fill="#F77F00"/>
<path d="M468.499 309.244V318.863L475.987 319.397L475.488 308.175L468.499 309.244Z" fill="#A0616A"/>
<path d="M469.997 313.519L465.004 312.45C465.004 312.45 458.015 325.81 453.522 326.879C449.591 327.814 440.308 331.204 443.735 335.975C444.249 336.66 444.915 337.196 445.672 337.535C446.429 337.874 447.254 338.005 448.07 337.915L469.497 335.963C469.497 335.963 477.984 336.498 477.984 331.154V313.519H469.997Z" fill="#003049"/>
<path d="M469.124 259.449L466.973 311.628L480.593 315.464L469.124 259.449Z" fill="#003049"/>
<path d="M474.142 330.044V343.856L484.894 344.624L484.178 328.509L474.142 330.044Z" fill="#A0616A"/>
<path d="M451.92 192.691L457.655 201.899L470.558 284.771L472.708 334.648H494.213L489.195 213.409C489.195 213.409 499.231 200.364 492.062 187.319L451.92 192.691Z" fill="#003049"/>
<path d="M476.292 336.183L469.124 334.648C469.124 334.648 459.088 353.831 452.637 355.366C447.107 356.681 434.204 361.379 438.304 368.01C439.019 369.116 439.998 369.997 441.139 370.56C442.279 371.124 443.54 371.35 444.791 371.215L475.575 368.411C475.575 368.411 487.762 369.178 487.762 361.505V336.183H476.292Z" fill="#003049"/>
<path d="M477.009 87.5655C485.323 87.5655 492.062 80.351 492.062 71.4515C492.062 62.5519 485.323 55.3374 477.009 55.3374C468.695 55.3374 461.956 62.5519 461.956 71.4515C461.956 80.351 468.695 87.5655 477.009 87.5655Z" fill="#A0616A"/>
<path d="M468.407 79.8922V102.912C468.407 103.68 484.894 101.378 484.894 101.378C484.894 101.378 485.611 79.8922 485.611 77.5902L468.407 79.8922Z" fill="#A0616A"/>
<path d="M486.328 89.8675C486.328 89.8675 477.009 87.5655 460.522 99.0756H457.655L456.938 116.724C456.938 116.724 446.902 128.234 448.336 132.838C448.336 132.838 436.15 148.185 441.167 154.324C441.167 154.324 429.698 168.903 434.716 175.042C434.716 175.042 422.53 191.923 429.698 194.225C429.698 194.225 445.468 194.225 454.07 195.76C462.672 197.295 498.514 188.854 498.514 188.854C498.514 188.854 499.231 168.903 498.514 168.903H497.797C497.797 168.903 500.664 150.487 499.231 149.72C499.231 149.72 499.948 129.002 497.797 128.234L486.328 89.8675Z" fill="#F77F00"/>
<path d="M484.028 107.539C481.399 107.922 478.902 109.01 476.77 110.702C474.638 112.393 472.94 114.634 471.832 117.215C469.76 122.104 469.068 127.534 469.841 132.838C471.991 148.185 477.009 152.789 477.009 152.789C477.009 152.789 471.991 155.091 473.425 157.393C474.859 159.695 471.991 159.695 471.991 159.695C471.991 159.695 471.991 160.463 469.841 161.997C467.69 163.532 466.257 162.765 465.54 163.532C464.823 164.299 461.956 163.532 461.956 163.532C461.956 163.532 453.354 179.646 461.956 181.181C470.558 182.715 474.142 175.042 477.726 175.809C481.31 176.577 498.514 170.438 497.08 155.859C495.647 141.279 489.195 106.749 484.177 107.516L484.028 107.539Z" fill="#D0CDE1"/>
<path d="M463.71 56.0971C464.077 54.5126 464.787 53.0426 465.783 51.8059C466.778 50.5692 468.031 49.6004 469.441 48.9776C472.262 47.7624 476.34 44.2661 478.898 46.0257C480.04 46.8112 481.021 47.8534 482.208 48.5581C484.126 49.6971 486.395 49.8567 488.56 50.2371C494.003 51.1937 498.563 57.6238 502.367 61.9003C506.17 66.1768 508.366 72.2099 507.683 78.0691C507.232 81.9344 505.609 85.5133 504.535 89.235C503.461 92.9567 502.98 97.1829 504.72 100.604C506.715 104.528 511.03 106.328 513.942 109.528C515.967 111.853 517.244 114.81 517.587 117.968C517.93 121.125 517.321 124.317 515.85 127.077C515.199 128.237 514.385 129.325 514.044 130.628C513.703 131.93 514.006 133.567 515.126 134.192C515.638 134.406 516.168 134.569 516.708 134.678C518.504 135.258 519.598 137.231 520.077 139.173C520.556 141.114 520.598 143.166 521.187 145.072C522.628 149.728 526.93 152.545 530.916 154.963C523.042 154.736 515.042 154.524 507.422 156.66C504.147 157.578 500.366 158.837 497.627 156.707C495.749 155.248 495.033 152.584 494.98 150.101C494.927 147.617 495.409 145.147 495.359 142.663C495.253 137.295 492.564 132.154 488.6 128.865C486.254 126.918 483.494 125.57 481.276 123.459C479.39 121.624 477.971 119.306 477.15 116.724C476.33 114.141 476.136 111.378 476.585 108.693C476.929 106.765 477.611 104.87 477.509 102.911C477.309 99.0442 474.163 96.019 473.488 92.2145C472.78 88.2179 474.904 84.3268 475.495 80.3084C475.768 77.8623 475.727 75.3877 475.374 72.9535C474.929 68.9147 474.257 64.7259 472.02 61.4386C469.917 58.3467 467.004 56.2946 463.437 56.0684C462.289 55.9956 463.897 54.9405 463.437 56.0684" fill="#003049"/>
<path d="M475.934 75.6718C476.726 75.6718 477.367 74.2976 477.367 72.6025C477.367 70.9073 476.726 69.5331 475.934 69.5331C475.142 69.5331 474.5 70.9073 474.5 72.6025C474.5 74.2976 475.142 75.6718 475.934 75.6718Z" fill="#A0616A"/>
<path d="M72.2573 273.508L77.7628 332.442L87.2724 330.835L91.2764 274.579L72.2573 273.508Z" fill="#D0B4B4"/>
<path d="M88.7738 324.941L75.7608 327.084L77.2623 344.229C77.2623 344.229 72.7578 346.907 75.7608 355.48C78.7638 364.052 78.7638 366.195 78.7638 366.195L89.0731 365.127C93.0683 364.713 102.671 360.858 104.039 356.819C104.607 355.144 98.5475 354.795 97.2824 354.408C93.7789 353.337 88.7738 324.941 88.7738 324.941Z" fill="#003049"/>
<path d="M121.307 271.365L126.812 330.299L136.322 328.691L140.326 272.436L121.307 271.365Z" fill="#D0B4B4"/>
<path d="M112.548 81.4362C121.117 81.4362 128.063 74.0002 128.063 64.8275C128.063 55.6547 121.117 48.2188 112.548 48.2188C103.979 48.2188 97.0321 55.6547 97.0321 64.8275C97.0321 74.0002 103.979 81.4362 112.548 81.4362Z" fill="#D0B4B4"/>
<path d="M116.802 76.3464C116.802 76.3464 112.798 87.5975 116.802 91.3478C120.806 95.0982 90.2754 95.0982 90.2754 95.0982L102.788 70.9888L116.802 76.3464Z" fill="#D0B4B4"/>
<path d="M146.332 275.115C139.825 287.438 76.2614 278.865 76.2614 278.865L65.2504 271.365L60.7458 268.686C60.7458 268.686 63.7489 217.252 69.2544 185.642C74.7599 154.032 88.7739 151.889 88.7739 151.889L88.824 151.268L89.2744 145.46C89.2744 145.46 88.859 144.983 88.1433 144.121C83.6839 138.725 67.6678 118.286 70.2554 105.813C73.2584 91.3478 95.7809 84.3829 109.294 83.8471C122.808 83.3114 134.32 96.1697 134.32 96.1697L132.368 104.929L123.809 143.317L123.679 144.121L122.308 152.425C124.825 152.591 126.452 153.186 127.498 153.92C129.785 155.516 129.315 157.783 129.315 157.783L136.977 210.63L146.332 275.115Z" fill="#F77F00"/>
<path d="M60.7458 204.394C60.7458 204.394 58.5338 227.75 63.8941 228.394C69.2543 229.039 67.7528 204.394 67.7528 204.394H60.7458Z" fill="#D0B4B4"/>
<path d="M77.2623 99.3843C77.2623 99.3843 68.7538 98.8485 67.2522 109.028C65.7507 119.208 64.2492 158.318 64.2492 158.318L55.7407 207.073L73.2583 209.216L84.7698 135.28L77.2623 99.3843Z" fill="#F77F00"/>
<path d="M149.835 205.466C149.835 205.466 153.339 226.896 147.833 227.432C142.328 227.968 140.326 206.537 140.326 206.537L149.835 205.466Z" fill="#D0B4B4"/>
<path d="M108.432 39.957C107.061 39.8776 105.687 39.9771 104.339 40.2531C102.856 40.6722 101.432 41.3011 100.105 42.1232C93.9046 45.6475 87.7749 50.24 84.8647 57.0788C82.4751 62.694 82.5578 69.1537 83.3381 75.2673C83.5891 77.234 83.9065 79.2454 83.5187 81.1864C82.7205 85.1815 79.1981 87.8656 77.5985 91.5749C75.9576 95.3802 76.5295 99.9364 78.1704 103.742C78.6387 104.828 79.2048 105.995 78.9434 107.158C78.7739 107.751 78.4901 108.3 78.1105 108.77C76.8198 110.567 75.331 112.209 74.2207 114.139C73.1103 116.07 72.3941 118.396 72.8595 120.607C73.3403 122.891 74.971 124.664 76.5309 126.305C77.9948 127.845 79.717 129.496 81.7665 129.377C82.9994 129.306 84.1078 128.59 85.158 127.895C88.3063 125.811 91.7725 123.227 92.2669 119.3C93.2311 122.813 97.1116 124.343 100.525 124.591C103.424 124.802 106.458 124.423 108.941 122.808C111.425 121.193 113.232 118.153 112.914 115.061C112.666 112.647 111.224 110.138 112.24 107.967C113.012 106.319 114.859 105.695 116.308 104.701C117.748 103.671 118.859 102.195 119.493 100.471C120.127 98.7458 120.254 96.8549 119.856 95.0511C118.955 91.2923 115.761 88.0212 116.419 84.205C116.807 81.9539 118.482 80.2055 119.186 78.0442C120.026 75.4656 119.392 72.5912 118.345 70.1005C117.298 67.6098 115.85 65.3175 114.958 62.7591C114.539 61.7494 114.395 60.6342 114.54 59.5407C114.991 57.2342 117.413 56.0243 119.6 55.7574C121.787 55.4904 124.08 55.7923 126.129 54.9316C128.028 54.1339 130.368 51.5857 130.023 49.1849C129.698 46.9216 126.733 45.2024 125.084 44.1585C120.115 41.0124 114.116 40.0919 108.432 39.957Z" fill="#003049"/>
<path d="M88.8239 151.268L89.2743 145.46C89.2743 145.46 88.8589 144.983 88.1432 144.121H123.679L122.307 152.425C124.825 152.591 121.512 151.423 122.558 152.157C113.754 151.353 97.933 151.305 88.8239 151.268Z" fill="#003049"/>
<path opacity="0.1" d="M136.977 210.63L129.815 211.359L122.307 152.425C124.825 152.591 126.452 153.186 127.498 153.92C129.785 155.516 129.315 157.783 129.315 157.783L136.977 210.63Z" fill="#003049"/>
<path d="M122.307 95.0982L134.32 96.1697L154.34 209.216L133.319 211.359L118.303 123.494L122.307 95.0982Z" fill="#F77F00"/>
<path opacity="0.1" d="M82.5176 156.979L72.2573 209.216L81.0176 156.979H82.5176Z" fill="#003049"/>
<path d="M137.323 324.941L124.31 327.084L125.811 344.229C125.811 344.229 121.306 346.907 124.31 355.48C127.313 364.052 127.313 366.195 127.313 366.195L137.622 365.127C141.617 364.713 151.219 360.858 152.588 356.819C153.156 355.144 147.096 354.795 145.831 354.408C142.328 353.337 137.323 324.941 137.323 324.941Z" fill="#003049"/>
<path d="M118.303 69.2905C119.022 68.8466 119.044 67.4482 118.353 66.1669C117.662 64.8856 116.519 64.2068 115.801 64.6506C115.083 65.0945 115.061 66.4929 115.752 67.7742C116.443 69.0555 117.585 69.7343 118.303 69.2905Z" fill="#D0B4B4"/>
<path d="M407.843 133.405H180.616V0H407.843V133.405ZM181.617 132.334H406.842V1.07153H181.617V132.334Z" fill="#F77F00"/>
<path d="M294.23 34.0999C289.724 29.2784 283.614 26.5702 277.243 26.5708C270.872 26.5713 264.762 29.2807 260.258 34.103C255.753 38.9253 253.222 45.4655 253.221 52.2852C253.221 59.105 255.751 65.6457 260.255 70.4688L294.23 106.838L328.205 70.4688C332.709 65.6457 335.239 59.105 335.239 52.2852C335.238 45.4655 332.707 38.9253 328.202 34.103C323.697 29.2807 317.587 26.5713 311.217 26.5708C304.846 26.5702 298.735 29.2784 294.23 34.0999Z" fill="white"/>
</g>
<defs>
<clipPath id="clip0">
<rect width="564" height="382" fill="white"/>
</clipPath>
</defs>
</svg>
