<svg width="529" height="320" viewBox="0 0 529 320" fill="none" xmlns="http://www.w3.org/2000/svg">
<g clip-path="url(#clip0)">
<path d="M528.04 318.538H337.814V319.502H528.04V318.538Z" fill="#003049"/>
<path d="M228.422 206.736V104.091H346.006V0H0V309.864H346.006V206.736H228.422Z" fill="#003049"/>
<path opacity="0.1" d="M346.006 104.091V0H226.012V102.645H119.994V0H0V104.091H108.428V206.736H0V309.864H229.386V206.736H228.422V104.091H346.006Z" fill="black"/>
<path d="M82.8873 0C82.8868 21.9829 74.1539 43.0653 58.6096 58.6096C43.0653 74.1539 21.9829 82.8868 0 82.8873V0H82.8873Z" fill="#D62828"/>
<path opacity="0.1" d="M38.5522 0C38.5518 10.2245 34.4899 20.0302 27.26 27.26C20.0302 34.4899 10.2245 38.5518 0 38.5522V59.7559C15.8481 59.7554 31.0469 53.4595 42.2532 42.2532C53.4595 31.0469 59.7554 15.8481 59.7559 0H38.5522Z" fill="black"/>
<path d="M346.006 28.9142V13.9752H266.492V0H249.144V13.9752V28.9142V40.4798V55.4188H266.492H346.006V40.4798H266.492V28.9142H346.006Z" fill="#D0CDE1"/>
<path d="M206.736 159.51C206.738 152.016 204.581 144.679 200.525 138.378C196.469 132.076 190.685 127.075 183.863 123.972C177.042 120.869 169.471 119.796 162.056 120.88C154.64 121.964 147.694 125.16 142.046 130.086C136.398 135.011 132.287 141.459 130.205 148.658C128.123 155.857 128.157 163.503 130.303 170.684C132.45 177.864 136.618 184.274 142.31 189.15C148.002 194.025 154.976 197.158 162.401 198.176V252.999H98.4221C97.0786 243.198 92.064 234.273 84.3919 228.027C76.7198 221.782 66.9626 218.683 57.093 219.356C47.2233 220.03 37.9774 224.425 31.2245 231.654C24.4716 238.884 20.7155 248.407 20.7155 258.3C20.7155 268.193 24.4716 277.716 31.2245 284.945C37.9774 292.175 47.2233 296.57 57.093 297.244C66.9626 297.917 76.7198 294.818 84.3919 288.572C92.064 282.327 97.0786 273.402 98.4221 263.601H162.401V286.732H173.003V263.601H194.689V252.999H173.003V198.176C182.349 196.895 190.914 192.273 197.116 185.165C203.317 178.056 206.735 168.943 206.736 159.51Z" fill="#D0CDE1"/>
<path d="M301.912 214.573L319.264 244.629L336.617 274.685H301.912H267.207L284.56 244.629L301.912 214.573Z" fill="#D0CDE1"/>
<path d="M294.202 278.54H259.496L276.849 248.484L276.97 248.275L270.588 237.223L253.236 267.278L235.883 297.334H270.588H305.294L294.443 278.54H294.202Z" fill="#D62828"/>
<path d="M76.6226 166.256V140.234H89.6339V124.813H25.059V189.388H89.6339V166.256H76.6226Z" fill="#D0CDE1"/>
<path d="M66.9845 112.765H42.8893V136.86H66.9845V112.765Z" fill="#D62828"/>
<path d="M451.558 115.584L443.586 136.654L414.834 146.743C414.834 146.743 397.485 144.815 397.485 154.453C397.485 161.287 418.207 155.417 418.207 155.417L456.114 144.057L468.073 114.445L451.558 115.584Z" fill="#FFB8B8"/>
<path d="M418.774 109.874H306.008V207.218H418.774V109.874Z" fill="#D62828"/>
<path d="M360.222 139.397L377.575 169.452L394.928 199.508H360.222H325.517L342.87 169.452L360.222 139.397Z" fill="#003049"/>
<path d="M360.141 161.156L368.012 174.79L375.884 188.424H360.141H344.397L352.269 174.79L360.141 161.156Z" fill="#D0CDE1"/>
<path d="M360.141 116.82L368.012 130.455L375.884 144.089H360.141H344.397L352.269 130.455L360.141 116.82Z" fill="#D0CDE1"/>
<path d="M468.421 101.892C468.421 101.892 460.449 100.753 456.462 115.56C452.476 130.366 451.337 131.505 451.337 131.505C451.337 131.505 474.685 134.922 475.255 133.783C475.824 132.644 480.38 105.309 468.421 101.892Z" fill="#003049"/>
<path d="M463.865 96.1976C472.357 96.1976 479.241 89.3137 479.241 80.8219C479.241 72.3301 472.357 65.4462 463.865 65.4462C455.374 65.4462 448.49 72.3301 448.49 80.8219C448.49 89.3137 455.374 96.1976 463.865 96.1976Z" fill="#FFB8B8"/>
<path d="M457.032 93.3502C457.032 93.3502 462.157 106.448 460.448 108.157C458.74 109.865 481.519 112.143 481.519 112.143C481.519 112.143 483.227 103.601 476.394 98.4755C476.394 98.4755 473.546 89.9334 474.116 88.225C474.685 86.5166 457.032 93.3502 457.032 93.3502Z" fill="#FFB8B8"/>
<path d="M470.699 99.0449C464.861 101.249 459.603 104.755 455.323 109.295C448.49 116.699 445.073 118.976 445.073 118.976C445.073 118.976 437.1 121.824 439.947 135.491C441.371 142.325 440.375 150.013 439.022 155.992C436.956 165.271 435.929 174.752 435.961 184.258V190.16C435.961 190.16 383.57 300.068 401.223 307.472C418.877 314.875 434.822 317.153 435.961 315.444C437.1 313.736 457.601 224.898 457.601 224.898C457.601 224.898 463.296 320 477.533 320C491.769 320 515.118 316.014 515.118 316.014L486.075 202.119C486.075 202.119 492.908 182.757 475.824 169.09L473.546 162.826C482.994 162.831 487.312 103.036 477.533 97.906C477.533 97.906 475.255 96.1976 470.699 99.0449Z" fill="#003049"/>
<path d="M456.462 129.796L448.49 150.867L419.737 160.956C419.737 160.956 402.389 159.028 402.389 168.666C402.389 175.5 423.111 169.63 423.111 169.63L461.018 158.27L472.977 128.657L456.462 129.796Z" fill="#FFB8B8"/>
<path d="M418.592 320C424.096 320 428.558 317.45 428.558 314.305C428.558 311.16 424.096 308.611 418.592 308.611C413.088 308.611 408.627 311.16 408.627 314.305C408.627 317.45 413.088 320 418.592 320Z" fill="#003049"/>
<path d="M494.902 320C500.405 320 504.867 317.45 504.867 314.305C504.867 311.16 500.405 308.611 494.902 308.611C489.398 308.611 484.936 311.16 484.936 314.305C484.936 317.45 489.398 320 494.902 320Z" fill="#003049"/>
<path d="M469.801 59.2602H469.801C469.009 59.2618 468.22 59.3403 467.443 59.4947C466.04 58.8137 464.502 58.459 462.942 58.4573H462.534C454.657 58.4573 448.272 65.5847 448.272 74.3767V74.3768H450.911L451.337 71.1325L451.962 74.3768H454.161C453.477 76.98 453.134 79.6609 453.14 82.3524V98.5559H457.13L459.44 92.5523L458.863 98.5559H484.511L486.611 93.0981L486.086 98.5559H488.974V85.8333C488.974 71.1574 480.39 59.2602 469.801 59.2602Z" fill="#003049"/>
</g>
<defs>
<clipPath id="clip0">
<rect width="528.04" height="320" fill="white"/>
</clipPath>
</defs>
</svg>
